<svg xmlns="http://www.w3.org/2000/svg" xmlns:xlink="http://www.w3.org/1999/xlink" width="500" zoomAndPan="magnify" viewBox="0 0 375 374.999991" height="500" preserveAspectRatio="xMidYMid meet" version="1.0"><defs><g/><clipPath id="ec932fea37"><path d="M 45 165.269531 L 343.570312 165.269531 L 343.570312 211.351562 L 45 211.351562 Z M 45 165.269531 " clip-rule="nonzero"/></clipPath><clipPath id="ef1f4620c2"><path d="M 45 215 L 343.570312 215 L 343.570312 261 L 45 261 Z M 45 215 " clip-rule="nonzero"/></clipPath><clipPath id="ea465cc72a"><path d="M 84.617188 314.195312 L 303.820312 314.195312 L 303.820312 362.40625 L 84.617188 362.40625 Z M 84.617188 314.195312 " clip-rule="nonzero"/></clipPath><clipPath id="a38269d604"><path d="M 84 63.878906 L 304 63.878906 L 304 112 L 84 112 Z M 84 63.878906 " clip-rule="nonzero"/></clipPath><clipPath id="302e24c7a3"><path d="M 58.429688 203.105469 L 342.617188 203.105469 L 342.617188 362.40625 L 58.429688 362.40625 Z M 58.429688 203.105469 " clip-rule="nonzero"/></clipPath><clipPath id="1a899f1a8b"><path d="M 75.402344 290.910156 L 307.699219 290.910156 L 307.699219 362.40625 L 75.402344 362.40625 Z M 75.402344 290.910156 " clip-rule="nonzero"/></clipPath></defs><g clip-path="url(#ec932fea37)"><path fill="#f27022" d="M 343.570312 211.203125 C 343.363281 195.175781 340.648438 179.753906 335.773438 165.324219 L 52.976562 165.324219 C 48.101562 179.753906 45.386719 195.175781 45.179688 211.203125 L 343.570312 211.203125 " fill-opacity="1" fill-rule="nonzero"/></g><path fill="#f49334" d="M 54.351562 161.449219 L 334.398438 161.449219 C 328.140625 144.496094 318.894531 128.988281 307.300781 115.570312 L 81.449219 115.570312 C 69.851562 128.988281 60.609375 144.496094 54.351562 161.449219 " fill-opacity="1" fill-rule="nonzero"/><g clip-path="url(#ef1f4620c2)"><path fill="#eb362f" d="M 335.773438 260.957031 C 340.648438 246.527344 343.367188 231.109375 343.570312 215.082031 L 45.179688 215.082031 C 45.386719 231.109375 48.101562 246.527344 52.976562 260.957031 L 335.773438 260.957031 " fill-opacity="1" fill-rule="nonzero"/></g><g clip-path="url(#ea465cc72a)"><path fill="#093950" d="M 84.929688 314.589844 C 112.183594 343.992188 151.128906 362.40625 194.375 362.40625 C 237.625 362.40625 276.566406 343.992188 303.820312 314.589844 L 84.929688 314.589844 " fill-opacity="1" fill-rule="nonzero"/></g><g clip-path="url(#a38269d604)"><path fill="#ffc44d" d="M 303.820312 111.695312 C 276.566406 82.289062 237.621094 63.878906 194.375 63.878906 C 151.128906 63.878906 112.183594 82.289062 84.929688 111.695312 L 303.820312 111.695312 " fill-opacity="1" fill-rule="nonzero"/></g><path fill="#ffffff" d="M 297.472656 161.449219 C 297.472656 175.078125 286.425781 186.125 272.800781 186.125 C 259.175781 186.125 248.132812 175.078125 248.132812 161.449219 C 248.132812 147.820312 259.175781 136.769531 272.800781 136.769531 C 286.425781 136.769531 297.472656 147.820312 297.472656 161.449219 " fill-opacity="1" fill-rule="nonzero"/><g clip-path="url(#302e24c7a3)"><path fill="#04b09a" d="M 342.285156 232.746094 C 327.257812 215.148438 309.640625 201.996094 291.191406 203.644531 C 266.648438 205.832031 239.421875 230.34375 217.574219 255.503906 C 200.75 237.933594 181.386719 224.023438 162.859375 225.183594 C 131.769531 227.125 86.734375 255.328125 58.640625 275.136719 C 82.179688 326.597656 134.097656 362.355469 194.375 362.355469 C 270.121094 362.355469 332.675781 305.890625 342.285156 232.746094 " fill-opacity="1" fill-rule="nonzero"/></g><path fill="#ffffff" d="M 58.859375 274.980469 C 86.964844 255.183594 131.851562 227.121094 162.859375 225.183594 C 163.582031 225.136719 164.304688 225.113281 165.03125 225.113281 C 182.894531 225.117188 201.40625 238.621094 217.574219 255.503906 C 239.421875 230.34375 266.648438 205.832031 291.191406 203.644531 C 292.242188 203.550781 293.285156 203.503906 294.328125 203.503906 C 311.601562 203.503906 328.050781 216.101562 342.207031 232.660156 C 342.441406 230.945312 342.648438 229.226562 342.824219 227.492188 C 326.304688 209.015625 310.003906 199.625 294.328125 199.625 C 293.167969 199.625 291.996094 199.679688 290.847656 199.78125 C 269.945312 201.648438 245.253906 218.472656 217.421875 249.804688 C 198.476562 230.84375 180.867188 221.238281 165.03125 221.238281 C 164.226562 221.238281 163.414062 221.261719 162.617188 221.3125 C 131.730469 223.242188 88.441406 249.460938 57.25 271.375 C 57.769531 272.585938 58.308594 273.789062 58.859375 274.980469 " fill-opacity="1" fill-rule="nonzero"/><path fill="#093950" d="M 144.054688 323.039062 C 136.660156 292.710938 121.339844 253.414062 89.609375 224.839844 L 108.234375 223.132812 L 101.46875 218.144531 C 101.46875 218.144531 113.125 214.554688 123.054688 216.164062 L 118.511719 210.507812 C 118.511719 210.507812 137.695312 209.855469 142.617188 212.792969 L 136.839844 206.539062 C 136.839844 206.539062 158.039062 205.546875 166.644531 210.792969 C 166.644531 210.792969 155.1875 187.34375 119.84375 192.320312 C 97.484375 195.46875 88.726562 207.878906 85.304688 216.578125 C 86.078125 210.117188 88.660156 196.113281 96.890625 189.695312 L 89.574219 189.890625 L 101.042969 175.664062 L 94.476562 177.136719 L 108.429688 155.582031 C 108.429688 155.582031 85.84375 160.414062 78.839844 178.648438 C 74.34375 190.363281 77.035156 204.90625 79.535156 213.804688 C 75.738281 208.335938 66.9375 198.820312 50.5625 196.230469 C 27.199219 192.535156 16.238281 206.320312 16.238281 206.320312 L 35.140625 205.21875 L 29.890625 209.011719 L 46.507812 207.015625 L 43.222656 210.789062 L 59.117188 212.089844 L 53.765625 215.65625 L 69.246094 219.78125 C 60.953125 220 48.230469 221.957031 35.460938 230.195312 C 13.792969 244.171875 19.089844 271.847656 19.089844 271.847656 C 19.089844 271.847656 24.261719 259.464844 30.109375 255.296875 L 31.816406 260.980469 L 36.851562 247.105469 L 39.53125 252.226562 L 52.515625 237.308594 L 52.527344 242.59375 C 52.527344 242.59375 62.699219 233.875 80.054688 225.628906 C 74.691406 230.363281 61.578125 243.710938 55.648438 265.472656 C 48.097656 293.195312 72.8125 308.179688 72.8125 308.179688 L 68.367188 281.449219 L 76.007812 285.695312 C 76.007812 285.695312 72.597656 274.855469 73.585938 267.296875 L 80.253906 271.207031 C 80.253906 271.207031 77.417969 256.324219 78.636719 248.953125 L 84.453125 256.203125 C 84.453125 256.203125 81.257812 238.335938 84.695312 230.476562 C 91.730469 235.535156 117.882812 258.339844 128.5 323.039062 L 144.054688 323.039062 " fill-opacity="1" fill-rule="nonzero"/><path fill="#00979e" d="M 286.5625 228.195312 C 270.738281 234.011719 320.105469 237.890625 303.820312 255.660156 C 287.53125 273.429688 272.824219 280.214844 301.171875 285.382812 C 310.097656 287.011719 315.796875 290.511719 319.414062 294.539062 C 331.300781 276.3125 339.316406 255.324219 342.285156 232.746094 C 327.257812 215.148438 309.640625 201.996094 291.191406 203.644531 C 289.660156 203.78125 288.113281 204.003906 286.5625 204.3125 C 286.5625 204.3125 302.386719 222.382812 286.5625 228.195312 " fill-opacity="1" fill-rule="nonzero"/><path fill="#00979e" d="M 232.847656 300.542969 C 232.847656 300.542969 226.46875 275.3125 218.976562 253.902344 C 218.507812 254.4375 218.039062 254.96875 217.574219 255.503906 C 201.277344 238.484375 182.59375 224.898438 164.601562 225.117188 C 161.625 230.925781 160.535156 237.789062 168.671875 241.445312 C 184.5 248.550781 190.960938 267.289062 174.164062 273.105469 C 157.371094 278.921875 194.375 295.75 194.375 295.75 L 232.847656 300.542969 " fill-opacity="1" fill-rule="nonzero"/><path fill="#093950" d="M 252.429688 165.914062 C 235.390625 157.011719 219.140625 156.015625 208.664062 156.695312 L 227.691406 149.714844 L 220.539062 145.839844 L 240.410156 142.363281 L 235.839844 137.988281 L 257 138.585938 L 249.945312 134.414062 L 273.890625 133.617188 C 273.890625 133.617188 258.488281 117.519531 229.480469 124.871094 C 209.15625 130.023438 199.167969 143.03125 195.011719 150.359375 C 197.132812 138.859375 198.851562 120.230469 191.828125 105.988281 C 180.898438 83.828125 151.890625 80.351562 151.890625 80.351562 L 171.957031 105.890625 L 163.515625 104.796875 L 179.609375 121.394531 L 170.367188 121.988281 C 181.480469 129.125 186.347656 146.464844 188.066406 154.519531 C 182.753906 143.957031 170.285156 129.335938 141.757812 127.953125 C 96.652344 125.765625 84.929688 156.625 84.929688 156.625 C 95.164062 149.027344 121.984375 147.828125 121.984375 147.828125 L 115.429688 156.375 C 121.292969 152.101562 145.53125 150.710938 145.53125 150.710938 L 140.464844 158.363281 C 152.785156 155.183594 167.886719 158.363281 167.886719 158.363281 L 159.9375 165.425781 L 183.59375 165.425781 C 137.519531 215.265625 126.019531 283.429688 123.417969 322.660156 L 144.921875 322.660156 C 144.914062 218.097656 181.257812 179.929688 190.4375 171.960938 C 195.679688 181.460938 193.714844 204.339844 193.714844 204.339844 L 200.207031 194.535156 C 202.589844 203.679688 200.734375 222.757812 200.734375 222.757812 L 208.683594 217.058594 C 210.804688 226.46875 207.757812 240.515625 207.757812 240.515625 L 216.898438 234.285156 L 214.382812 268.472656 C 214.382812 268.472656 243.789062 246.742188 231.070312 212.6875 C 221.089844 185.957031 203.027344 170.660156 195.722656 165.316406 C 218.542969 173.699219 232.363281 183.503906 232.363281 183.503906 L 231.765625 176.847656 L 249.847656 194.136719 L 252.628906 187.378906 L 260.578125 204.273438 L 262.066406 196.921875 C 269.914062 201.492188 277.863281 216.496094 277.863281 216.496094 C 277.863281 216.496094 281.339844 181.019531 252.429688 165.914062 " fill-opacity="1" fill-rule="nonzero"/><g clip-path="url(#1a899f1a8b)"><path fill="#093950" d="M 307.621094 310.269531 C 250.382812 303.472656 163.804688 289.625 127.117188 291.089844 C 105.289062 291.964844 87.785156 297.988281 75.820312 303.71875 C 103.089844 339.359375 146.042969 362.355469 194.375 362.355469 C 239.675781 362.355469 280.257812 342.152344 307.621094 310.269531 " fill-opacity="1" fill-rule="nonzero"/></g><path fill="#ffffff" d="M 77.046875 305.3125 C 88.832031 299.722656 105.964844 293.878906 127.191406 293.027344 C 153.953125 291.9375 208.691406 299.253906 256.980469 305.695312 C 274.363281 308.015625 291.167969 310.253906 306.074219 312.035156 C 307.109375 310.871094 308.125 309.695312 309.121094 308.496094 C 293.617188 306.671875 275.871094 304.304688 257.492188 301.855469 C 209.046875 295.390625 154.140625 288.070312 127.039062 289.152344 C 104.570312 290.050781 86.722656 296.242188 74.597656 302.105469 C 75.402344 303.183594 76.214844 304.253906 77.046875 305.3125 " fill-opacity="1" fill-rule="nonzero"/><g fill="#004447" fill-opacity="1"><g transform="translate(77.837096, 97.245857)"><g><path d="M -18.53125 -31.15625 L -8.078125 -38.203125 L 5.46875 -32 L 4.796875 -46.875 L 15.25 -53.9375 L 35.484375 -23.9375 L 25.484375 -17.203125 L 15.453125 -32.078125 L 15.765625 -16.75 L 15.59375 -16.625 L 1.5 -22.65625 L 11.53125 -7.78125 L 1.703125 -1.15625 Z M -18.53125 -31.15625 "/></g></g></g><g fill="#004447" fill-opacity="1"><g transform="translate(110.792944, 74.587694)"><g><path d="M -0.53125 0.203125 L 0.578125 -39.28125 L 11.78125 -43.59375 L 39.109375 -15.09375 L 26.859375 -10.359375 L 23.328125 -14.203125 L 11.515625 -9.640625 L 11.53125 -4.453125 Z M 17.453125 -21.125 L 11.203125 -28.140625 L 11.28125 -18.75 Z M 17.453125 -21.125 "/></g></g></g><g fill="#004447" fill-opacity="1"><g transform="translate(144.997836, 60.994442)"><g><path d="M -0.8125 -16.3125 L -3.9375 -36.015625 L 8.21875 -37.9375 L 11.328125 -18.390625 C 11.671875 -16.179688 12.441406 -14.65625 13.640625 -13.8125 C 14.835938 -12.96875 16.234375 -12.671875 17.828125 -12.921875 C 19.472656 -13.179688 20.726562 -13.859375 21.59375 -14.953125 C 22.46875 -16.054688 22.726562 -17.695312 22.375 -19.875 L 19.234375 -39.6875 L 31.390625 -41.609375 L 34.484375 -22.15625 C 34.960938 -19.101562 34.945312 -16.4375 34.4375 -14.15625 C 33.925781 -11.875 33.003906 -9.925781 31.671875 -8.3125 C 30.335938 -6.707031 28.617188 -5.414062 26.515625 -4.4375 C 24.421875 -3.46875 22.050781 -2.773438 19.40625 -2.359375 C 16.75 -1.929688 14.289062 -1.859375 12.03125 -2.140625 C 9.769531 -2.429688 7.769531 -3.132812 6.03125 -4.25 C 4.289062 -5.375 2.832031 -6.925781 1.65625 -8.90625 C 0.476562 -10.882812 -0.34375 -13.351562 -0.8125 -16.3125 Z M -0.8125 -16.3125 "/></g></g></g><g fill="#004447" fill-opacity="1"><g transform="translate(180.80954, 55.931877)"><g><path d="M 1.78125 -36.203125 L 13.875 -36.34375 L 14.265625 -0.15625 L 2.171875 -0.015625 Z M 1.78125 -36.203125 "/></g></g></g><g fill="#004447" fill-opacity="1"><g transform="translate(195.659127, 55.725337)"><g/></g></g><g fill="#004447" fill-opacity="1"><g transform="translate(207.98783, 55.2152)"><g><path d="M 10.359375 -34.734375 L 22.640625 -31.8125 L 27.25 -17.640625 L 37.734375 -28.234375 L 50 -25.3125 L 41.640625 9.890625 L 29.921875 7.09375 L 34.0625 -10.359375 L 23 0.265625 L 22.796875 0.203125 L 17.671875 -14.234375 L 13.53125 3.21875 L 2 0.46875 Z M 10.359375 -34.734375 "/></g></g></g><g fill="#004447" fill-opacity="1"><g transform="translate(247.23511, 64.608479)"><g><path d="M 17.28125 -31.859375 L 45.203125 -18.703125 L 40.96875 -9.71875 L 23.8125 -17.796875 L 22.25 -14.484375 L 38.234375 -6.953125 L 34.515625 0.953125 L 18.53125 -6.578125 L 16.859375 -3.015625 L 34.25 5.171875 L 30.015625 14.140625 L 1.859375 0.875 Z M 17.28125 -31.859375 "/></g></g></g><g fill="#004447" fill-opacity="1"><g transform="translate(275.002223, 77.30752)"><g><path d="M 22.71875 -28.234375 L 47.828125 -10.296875 L 42.046875 -2.21875 L 26.625 -13.25 L 24.5 -10.265625 L 38.875 0.015625 L 33.796875 7.109375 L 19.421875 -3.171875 L 17.125 0.03125 L 32.765625 11.21875 L 27 19.296875 L 1.671875 1.203125 Z M 22.71875 -28.234375 "/></g></g></g></svg>