<svg xmlns="http://www.w3.org/2000/svg" xmlns:xlink="http://www.w3.org/1999/xlink" width="500" zoomAndPan="magnify" viewBox="0 0 375 374.999991" height="500" preserveAspectRatio="xMidYMid meet" version="1.0"><defs><g/><clipPath id="fec73a8c0c"><path d="M 43.109375 165.269531 L 341.828125 165.269531 L 341.828125 211.351562 L 43.109375 211.351562 Z M 43.109375 165.269531 " clip-rule="nonzero"/></clipPath><clipPath id="748045e310"><path d="M 43.109375 215 L 341.828125 215 L 341.828125 261 L 43.109375 261 Z M 43.109375 215 " clip-rule="nonzero"/></clipPath><clipPath id="edb24fd6b5"><path d="M 83 314.195312 L 302.078125 314.195312 L 302.078125 362.40625 L 83 362.40625 Z M 83 314.195312 " clip-rule="nonzero"/></clipPath><clipPath id="ec580491e6"><path d="M 83 63.878906 L 303 63.878906 L 303 112 L 83 112 Z M 83 63.878906 " clip-rule="nonzero"/></clipPath><clipPath id="7a44be8a6b"><path d="M 56.6875 203.105469 L 340.875 203.105469 L 340.875 362.40625 L 56.6875 362.40625 Z M 56.6875 203.105469 " clip-rule="nonzero"/></clipPath><clipPath id="e58af1fefb"><path d="M 55 199 L 341.847656 199 L 341.847656 275 L 55 275 Z M 55 199 " clip-rule="nonzero"/></clipPath><clipPath id="af0bc15332"><path d="M 74 290.910156 L 305.960938 290.910156 L 305.960938 362.40625 L 74 362.40625 Z M 74 290.910156 " clip-rule="nonzero"/></clipPath></defs><g clip-path="url(#fec73a8c0c)"><path fill="#f27022" d="M 341.828125 211.203125 C 341.621094 195.175781 338.90625 179.753906 334.03125 165.324219 L 51.234375 165.324219 C 46.363281 179.753906 43.644531 195.175781 43.4375 211.203125 L 341.828125 211.203125 " fill-opacity="1" fill-rule="nonzero"/></g><path fill="#f49334" d="M 52.609375 161.449219 L 332.65625 161.449219 C 326.398438 144.496094 317.15625 128.988281 305.558594 115.570312 L 79.707031 115.570312 C 68.109375 128.988281 58.867188 144.496094 52.609375 161.449219 " fill-opacity="1" fill-rule="nonzero"/><g clip-path="url(#748045e310)"><path fill="#eb362f" d="M 334.03125 260.957031 C 338.90625 246.527344 341.625 231.109375 341.828125 215.082031 L 43.4375 215.082031 C 43.644531 231.109375 46.359375 246.527344 51.234375 260.957031 L 334.03125 260.957031 " fill-opacity="1" fill-rule="nonzero"/></g><g clip-path="url(#edb24fd6b5)"><path fill="#093950" d="M 83.1875 314.589844 C 110.441406 343.992188 149.386719 362.40625 192.632812 362.40625 C 235.882812 362.40625 274.824219 343.992188 302.078125 314.589844 L 83.1875 314.589844 " fill-opacity="1" fill-rule="nonzero"/></g><g clip-path="url(#ec580491e6)"><path fill="#ffc44d" d="M 302.078125 111.695312 C 274.824219 82.289062 235.878906 63.878906 192.632812 63.878906 C 149.386719 63.878906 110.441406 82.289062 83.1875 111.695312 L 302.078125 111.695312 " fill-opacity="1" fill-rule="nonzero"/></g><path fill="#ffffff" d="M 295.730469 161.449219 C 295.730469 175.078125 284.683594 186.125 271.0625 186.125 C 257.433594 186.125 246.390625 175.078125 246.390625 161.449219 C 246.390625 147.820312 257.433594 136.769531 271.0625 136.769531 C 284.683594 136.769531 295.730469 147.820312 295.730469 161.449219 " fill-opacity="1" fill-rule="nonzero"/><g clip-path="url(#7a44be8a6b)"><path fill="#04b09a" d="M 340.542969 232.746094 C 325.515625 215.148438 307.902344 201.996094 289.453125 203.644531 C 264.90625 205.832031 237.679688 230.34375 215.832031 255.503906 C 199.007812 237.933594 179.644531 224.023438 161.117188 225.183594 C 130.03125 227.125 84.992188 255.328125 56.898438 275.136719 C 80.4375 326.597656 132.359375 362.355469 192.632812 362.355469 C 268.378906 362.355469 330.933594 305.890625 340.542969 232.746094 " fill-opacity="1" fill-rule="nonzero"/></g><g clip-path="url(#e58af1fefb)"><path fill="#ffffff" d="M 57.117188 274.980469 C 85.226562 255.183594 130.109375 227.121094 161.117188 225.183594 C 161.839844 225.136719 162.5625 225.113281 163.289062 225.113281 C 181.152344 225.117188 199.664062 238.621094 215.832031 255.503906 C 237.679688 230.34375 264.90625 205.832031 289.453125 203.644531 C 290.5 203.550781 291.542969 203.503906 292.585938 203.503906 C 309.863281 203.503906 326.308594 216.101562 340.46875 232.660156 C 340.699219 230.945312 340.910156 229.226562 341.082031 227.492188 C 324.5625 209.015625 308.261719 199.625 292.585938 199.625 C 291.425781 199.625 290.253906 199.679688 289.105469 199.78125 C 268.203125 201.648438 243.511719 218.472656 215.679688 249.804688 C 196.734375 230.84375 179.125 221.238281 163.289062 221.238281 C 162.484375 221.238281 161.671875 221.261719 160.878906 221.3125 C 129.988281 223.242188 86.699219 249.460938 55.511719 271.375 C 56.027344 272.585938 56.566406 273.789062 57.117188 274.980469 " fill-opacity="1" fill-rule="nonzero"/></g><path fill="#093950" d="M 142.3125 323.039062 C 134.917969 292.710938 119.597656 253.414062 87.871094 224.839844 L 106.492188 223.132812 L 99.726562 218.144531 C 99.726562 218.144531 111.386719 214.554688 121.3125 216.164062 L 116.769531 210.507812 C 116.769531 210.507812 135.953125 209.855469 140.875 212.792969 L 135.097656 206.539062 C 135.097656 206.539062 156.296875 205.546875 164.902344 210.792969 C 164.902344 210.792969 153.449219 187.34375 118.101562 192.320312 C 95.746094 195.46875 86.984375 207.878906 83.5625 216.578125 C 84.335938 210.117188 86.917969 196.113281 95.148438 189.695312 L 87.832031 189.890625 L 99.300781 175.664062 L 92.734375 177.136719 L 106.6875 155.582031 C 106.6875 155.582031 84.105469 160.414062 77.101562 178.648438 C 72.601562 190.363281 75.292969 204.90625 77.796875 213.804688 C 73.996094 208.335938 65.195312 198.820312 48.824219 196.230469 C 25.457031 192.535156 14.496094 206.320312 14.496094 206.320312 L 33.402344 205.21875 L 28.148438 209.011719 L 44.765625 207.015625 L 41.480469 210.789062 L 57.375 212.089844 L 52.023438 215.65625 L 67.503906 219.78125 C 59.210938 220 46.492188 221.957031 33.71875 230.195312 C 12.050781 244.171875 17.347656 271.847656 17.347656 271.847656 C 17.347656 271.847656 22.519531 259.464844 28.367188 255.296875 L 30.074219 260.980469 L 35.109375 247.105469 L 37.789062 252.226562 L 50.773438 237.308594 L 50.785156 242.59375 C 50.785156 242.59375 60.957031 233.875 78.316406 225.628906 C 72.949219 230.363281 59.835938 243.710938 53.90625 265.472656 C 46.355469 293.195312 71.070312 308.179688 71.070312 308.179688 L 66.625 281.449219 L 74.269531 285.695312 C 74.269531 285.695312 70.855469 274.855469 71.84375 267.296875 L 78.511719 271.207031 C 78.511719 271.207031 75.675781 256.324219 76.894531 248.953125 L 82.710938 256.203125 C 82.710938 256.203125 79.515625 238.335938 82.957031 230.476562 C 89.988281 235.535156 116.140625 258.339844 126.757812 323.039062 L 142.3125 323.039062 " fill-opacity="1" fill-rule="nonzero"/><path fill="#00979e" d="M 284.820312 228.195312 C 268.996094 234.011719 318.367188 237.890625 302.078125 255.660156 C 285.792969 273.429688 271.082031 280.214844 299.429688 285.382812 C 308.355469 287.011719 314.054688 290.511719 317.671875 294.539062 C 329.558594 276.3125 337.578125 255.324219 340.542969 232.746094 C 325.515625 215.148438 307.902344 201.996094 289.453125 203.644531 C 287.917969 203.78125 286.375 204.003906 284.820312 204.3125 C 284.820312 204.3125 300.644531 222.382812 284.820312 228.195312 " fill-opacity="1" fill-rule="nonzero"/><path fill="#00979e" d="M 231.109375 300.542969 C 231.109375 300.542969 224.726562 275.3125 217.234375 253.902344 C 216.765625 254.4375 216.296875 254.96875 215.832031 255.503906 C 199.535156 238.484375 180.855469 224.898438 162.859375 225.117188 C 159.886719 230.925781 158.796875 237.789062 166.933594 241.445312 C 182.757812 248.550781 189.21875 267.289062 172.421875 273.105469 C 155.628906 278.921875 192.632812 295.75 192.632812 295.75 L 231.109375 300.542969 " fill-opacity="1" fill-rule="nonzero"/><path fill="#093950" d="M 250.6875 165.914062 C 233.648438 157.011719 217.398438 156.015625 206.921875 156.695312 L 225.953125 149.714844 L 218.796875 145.839844 L 238.667969 142.363281 L 234.097656 137.988281 L 255.257812 138.585938 L 248.203125 134.414062 L 272.148438 133.617188 C 272.148438 133.617188 256.75 117.519531 227.738281 124.871094 C 207.414062 130.023438 197.429688 143.03125 193.273438 150.359375 C 195.394531 138.859375 197.109375 120.230469 190.085938 105.988281 C 179.160156 83.828125 150.148438 80.351562 150.148438 80.351562 L 170.21875 105.890625 L 161.773438 104.796875 L 177.867188 121.394531 L 168.628906 121.988281 C 179.738281 129.125 184.605469 146.464844 186.324219 154.519531 C 181.011719 143.957031 168.542969 129.335938 140.015625 127.953125 C 94.910156 125.765625 83.1875 156.625 83.1875 156.625 C 93.421875 149.027344 120.246094 147.828125 120.246094 147.828125 L 113.6875 156.375 C 119.550781 152.101562 143.789062 150.710938 143.789062 150.710938 L 138.722656 158.363281 C 151.042969 155.183594 166.144531 158.363281 166.144531 158.363281 L 158.195312 165.425781 L 181.855469 165.425781 C 135.777344 215.265625 124.277344 283.429688 121.675781 322.660156 L 143.179688 322.660156 C 143.171875 218.097656 179.515625 179.929688 188.695312 171.960938 C 193.9375 181.460938 191.972656 204.339844 191.972656 204.339844 L 198.464844 194.535156 C 200.847656 203.679688 198.996094 222.757812 198.996094 222.757812 L 206.941406 217.058594 C 209.0625 226.46875 206.015625 240.515625 206.015625 240.515625 L 215.15625 234.285156 L 212.640625 268.472656 C 212.640625 268.472656 242.046875 246.742188 229.328125 212.6875 C 219.347656 185.957031 201.285156 170.660156 193.980469 165.316406 C 216.800781 173.699219 230.621094 183.503906 230.621094 183.503906 L 230.023438 176.847656 L 248.105469 194.136719 L 250.886719 187.378906 L 258.835938 204.273438 L 260.324219 196.921875 C 268.171875 201.492188 276.121094 216.496094 276.121094 216.496094 C 276.121094 216.496094 279.597656 181.019531 250.6875 165.914062 " fill-opacity="1" fill-rule="nonzero"/><g clip-path="url(#af0bc15332)"><path fill="#093950" d="M 305.878906 310.269531 C 248.640625 303.472656 162.0625 289.625 125.375 291.089844 C 103.546875 291.964844 86.046875 297.988281 74.082031 303.71875 C 101.347656 339.359375 144.300781 362.355469 192.632812 362.355469 C 237.933594 362.355469 278.515625 342.152344 305.878906 310.269531 " fill-opacity="1" fill-rule="nonzero"/></g><path fill="#ffffff" d="M 75.304688 305.3125 C 87.089844 299.722656 104.222656 293.878906 125.449219 293.027344 C 152.210938 291.9375 206.949219 299.253906 255.238281 305.695312 C 272.625 308.015625 289.425781 310.253906 304.332031 312.035156 C 305.367188 310.871094 306.382812 309.695312 307.378906 308.496094 C 291.875 306.671875 274.132812 304.304688 255.75 301.855469 C 207.308594 295.390625 152.398438 288.070312 125.296875 289.152344 C 102.828125 290.050781 84.984375 296.242188 72.855469 302.105469 C 73.660156 303.183594 74.472656 304.253906 75.304688 305.3125 " fill-opacity="1" fill-rule="nonzero"/><g fill="#004447" fill-opacity="1"><g transform="translate(76.095613, 97.245857)"><g><path d="M -18.53125 -31.15625 L -8.078125 -38.203125 L 5.46875 -32 L 4.796875 -46.875 L 15.25 -53.9375 L 35.484375 -23.9375 L 25.484375 -17.203125 L 15.453125 -32.078125 L 15.765625 -16.75 L 15.59375 -16.625 L 1.5 -22.65625 L 11.53125 -7.78125 L 1.703125 -1.15625 Z M -18.53125 -31.15625 "/></g></g></g><g fill="#004447" fill-opacity="1"><g transform="translate(109.051458, 74.587694)"><g><path d="M -0.53125 0.203125 L 0.578125 -39.28125 L 11.78125 -43.59375 L 39.109375 -15.09375 L 26.859375 -10.359375 L 23.328125 -14.203125 L 11.515625 -9.640625 L 11.53125 -4.453125 Z M 17.453125 -21.125 L 11.203125 -28.140625 L 11.28125 -18.75 Z M 17.453125 -21.125 "/></g></g></g><g fill="#004447" fill-opacity="1"><g transform="translate(143.256358, 60.994442)"><g><path d="M -0.8125 -16.3125 L -3.9375 -36.015625 L 8.21875 -37.9375 L 11.328125 -18.390625 C 11.671875 -16.179688 12.441406 -14.65625 13.640625 -13.8125 C 14.835938 -12.96875 16.234375 -12.671875 17.828125 -12.921875 C 19.472656 -13.179688 20.726562 -13.859375 21.59375 -14.953125 C 22.46875 -16.054688 22.726562 -17.695312 22.375 -19.875 L 19.234375 -39.6875 L 31.390625 -41.609375 L 34.484375 -22.15625 C 34.960938 -19.101562 34.945312 -16.4375 34.4375 -14.15625 C 33.925781 -11.875 33.003906 -9.925781 31.671875 -8.3125 C 30.335938 -6.707031 28.617188 -5.414062 26.515625 -4.4375 C 24.421875 -3.46875 22.050781 -2.773438 19.40625 -2.359375 C 16.75 -1.929688 14.289062 -1.859375 12.03125 -2.140625 C 9.769531 -2.429688 7.769531 -3.132812 6.03125 -4.25 C 4.289062 -5.375 2.832031 -6.925781 1.65625 -8.90625 C 0.476562 -10.882812 -0.34375 -13.351562 -0.8125 -16.3125 Z M -0.8125 -16.3125 "/></g></g></g><g fill="#004447" fill-opacity="1"><g transform="translate(179.068061, 55.931877)"><g><path d="M 1.78125 -36.203125 L 13.875 -36.34375 L 14.265625 -0.15625 L 2.171875 -0.015625 Z M 1.78125 -36.203125 "/></g></g></g><g fill="#004447" fill-opacity="1"><g transform="translate(193.917632, 55.725337)"><g/></g></g><g fill="#004447" fill-opacity="1"><g transform="translate(206.246352, 55.2152)"><g><path d="M 10.359375 -34.734375 L 22.640625 -31.8125 L 27.25 -17.640625 L 37.734375 -28.234375 L 50 -25.3125 L 41.640625 9.890625 L 29.921875 7.09375 L 34.0625 -10.359375 L 23 0.265625 L 22.796875 0.203125 L 17.671875 -14.234375 L 13.53125 3.21875 L 2 0.46875 Z M 10.359375 -34.734375 "/></g></g></g><g fill="#004447" fill-opacity="1"><g transform="translate(245.493615, 64.608479)"><g><path d="M 17.28125 -31.859375 L 45.203125 -18.703125 L 40.96875 -9.71875 L 23.8125 -17.796875 L 22.25 -14.484375 L 38.234375 -6.953125 L 34.515625 0.953125 L 18.53125 -6.578125 L 16.859375 -3.015625 L 34.25 5.171875 L 30.015625 14.140625 L 1.859375 0.875 Z M 17.28125 -31.859375 "/></g></g></g><g fill="#004447" fill-opacity="1"><g transform="translate(273.26076, 77.30752)"><g><path d="M 22.71875 -28.234375 L 47.828125 -10.296875 L 42.046875 -2.21875 L 26.625 -13.25 L 24.5 -10.265625 L 38.875 0.015625 L 33.796875 7.109375 L 19.421875 -3.171875 L 17.125 0.03125 L 32.765625 11.21875 L 27 19.296875 L 1.671875 1.203125 Z M 22.71875 -28.234375 "/></g></g></g></svg>