<svg xmlns="http://www.w3.org/2000/svg" xmlns:xlink="http://www.w3.org/1999/xlink" width="500" zoomAndPan="magnify" viewBox="0 0 375 374.999991" height="500" preserveAspectRatio="xMidYMid meet" version="1.0"><defs><g/><clipPath id="5294cbb2d2"><path d="M 43.109375 165.269531 L 341.828125 165.269531 L 341.828125 211.351562 L 43.109375 211.351562 Z M 43.109375 165.269531 " clip-rule="nonzero"/></clipPath><clipPath id="322799f7b1"><path d="M 43.109375 215 L 341.828125 215 L 341.828125 261 L 43.109375 261 Z M 43.109375 215 " clip-rule="nonzero"/></clipPath><clipPath id="a7b59dfb9b"><path d="M 83 314.195312 L 302.078125 314.195312 L 302.078125 362.40625 L 83 362.40625 Z M 83 314.195312 " clip-rule="nonzero"/></clipPath><clipPath id="87f18d14fd"><path d="M 83 63.878906 L 303 63.878906 L 303 112 L 83 112 Z M 83 63.878906 " clip-rule="nonzero"/></clipPath><clipPath id="644dc16367"><path d="M 56.6875 203.105469 L 340.875 203.105469 L 340.875 362.40625 L 56.6875 362.40625 Z M 56.6875 203.105469 " clip-rule="nonzero"/></clipPath><clipPath id="b2892dae6f"><path d="M 55 199 L 341.847656 199 L 341.847656 275 L 55 275 Z M 55 199 " clip-rule="nonzero"/></clipPath><clipPath id="23ff143c10"><path d="M 74 290.910156 L 305.960938 290.910156 L 305.960938 362.40625 L 74 362.40625 Z M 74 290.910156 " clip-rule="nonzero"/></clipPath></defs><g clip-path="url(#5294cbb2d2)"><path fill="#f27022" d="M 341.828125 211.203125 C 341.621094 195.175781 338.90625 179.753906 334.03125 165.324219 L 51.234375 165.324219 C 46.363281 179.753906 43.644531 195.175781 43.4375 211.203125 L 341.828125 211.203125 " fill-opacity="1" fill-rule="nonzero"/></g><path fill="#f49334" d="M 52.609375 161.449219 L 332.65625 161.449219 C 326.398438 144.496094 317.15625 128.988281 305.558594 115.570312 L 79.707031 115.570312 C 68.109375 128.988281 58.867188 144.496094 52.609375 161.449219 " fill-opacity="1" fill-rule="nonzero"/><g clip-path="url(#322799f7b1)"><path fill="#eb362f" d="M 334.03125 260.957031 C 338.90625 246.527344 341.625 231.109375 341.828125 215.082031 L 43.4375 215.082031 C 43.644531 231.109375 46.359375 246.527344 51.234375 260.957031 L 334.03125 260.957031 " fill-opacity="1" fill-rule="nonzero"/></g><g clip-path="url(#a7b59dfb9b)"><path fill="#093950" d="M 83.1875 314.589844 C 110.441406 343.992188 149.386719 362.40625 192.632812 362.40625 C 235.882812 362.40625 274.824219 343.992188 302.078125 314.589844 L 83.1875 314.589844 " fill-opacity="1" fill-rule="nonzero"/></g><g clip-path="url(#87f18d14fd)"><path fill="#ffc44d" d="M 302.078125 111.695312 C 274.824219 82.289062 235.878906 63.878906 192.632812 63.878906 C 149.386719 63.878906 110.441406 82.289062 83.1875 111.695312 L 302.078125 111.695312 " fill-opacity="1" fill-rule="nonzero"/></g><path fill="#ffffff" d="M 295.730469 161.449219 C 295.730469 175.078125 284.683594 186.125 271.0625 186.125 C 257.433594 186.125 246.390625 175.078125 246.390625 161.449219 C 246.390625 147.820312 257.433594 136.769531 271.0625 136.769531 C 284.683594 136.769531 295.730469 147.820312 295.730469 161.449219 " fill-opacity="1" fill-rule="nonzero"/><g clip-path="url(#644dc16367)"><path fill="#04b09a" d="M 340.542969 232.746094 C 325.515625 215.148438 307.902344 201.996094 289.453125 203.644531 C 264.90625 205.832031 237.679688 230.34375 215.832031 255.503906 C 199.007812 237.933594 179.644531 224.023438 161.117188 225.183594 C 130.03125 227.125 84.992188 255.328125 56.898438 275.136719 C 80.4375 326.597656 132.359375 362.355469 192.632812 362.355469 C 268.378906 362.355469 330.933594 305.890625 340.542969 232.746094 " fill-opacity="1" fill-rule="nonzero"/></g><g clip-path="url(#b2892dae6f)"><path fill="#ffffff" d="M 57.117188 274.980469 C 85.226562 255.183594 130.109375 227.121094 161.117188 225.183594 C 161.839844 225.136719 162.5625 225.113281 163.289062 225.113281 C 181.152344 225.117188 199.664062 238.621094 215.832031 255.503906 C 237.679688 230.34375 264.90625 205.832031 289.453125 203.644531 C 290.5 203.550781 291.542969 203.503906 292.585938 203.503906 C 309.863281 203.503906 326.308594 216.101562 340.46875 232.660156 C 340.699219 230.945312 340.910156 229.226562 341.082031 227.492188 C 324.5625 209.015625 308.261719 199.625 292.585938 199.625 C 291.425781 199.625 290.253906 199.679688 289.105469 199.78125 C 268.203125 201.648438 243.511719 218.472656 215.679688 249.804688 C 196.734375 230.84375 179.125 221.238281 163.289062 221.238281 C 162.484375 221.238281 161.671875 221.261719 160.878906 221.3125 C 129.988281 223.242188 86.699219 249.460938 55.511719 271.375 C 56.027344 272.585938 56.566406 273.789062 57.117188 274.980469 " fill-opacity="1" fill-rule="nonzero"/></g><path fill="#093950" d="M 142.3125 323.039062 C 134.917969 292.710938 119.597656 253.414062 87.871094 224.839844 L 106.492188 223.132812 L 99.726562 218.144531 C 99.726562 218.144531 111.386719 214.554688 121.3125 216.164062 L 116.769531 210.507812 C 116.769531 210.507812 135.953125 209.855469 140.875 212.792969 L 135.097656 206.539062 C 135.097656 206.539062 156.296875 205.546875 164.902344 210.792969 C 164.902344 210.792969 153.449219 187.34375 118.101562 192.320312 C 95.746094 195.46875 86.984375 207.878906 83.5625 216.578125 C 84.335938 210.117188 86.917969 196.113281 95.148438 189.695312 L 87.832031 189.890625 L 99.300781 175.664062 L 92.734375 177.136719 L 106.6875 155.582031 C 106.6875 155.582031 84.105469 160.414062 77.101562 178.648438 C 72.601562 190.363281 75.292969 204.90625 77.796875 213.804688 C 73.996094 208.339844 65.195312 198.820312 48.824219 196.230469 C 25.457031 192.535156 14.496094 206.320312 14.496094 206.320312 L 33.402344 205.21875 L 28.148438 209.011719 L 44.765625 207.015625 L 41.480469 210.789062 L 57.375 212.089844 L 52.023438 215.65625 L 67.503906 219.78125 C 59.210938 220 46.492188 221.957031 33.71875 230.195312 C 12.050781 244.171875 17.347656 271.847656 17.347656 271.847656 C 17.347656 271.847656 22.519531 259.464844 28.367188 255.296875 L 30.074219 260.980469 L 35.109375 247.105469 L 37.789062 252.226562 L 50.773438 237.308594 L 50.785156 242.59375 C 50.785156 242.59375 60.957031 233.875 78.316406 225.628906 C 72.949219 230.363281 59.835938 243.710938 53.90625 265.472656 C 46.355469 293.195312 71.070312 308.179688 71.070312 308.179688 L 66.625 281.449219 L 74.269531 285.695312 C 74.269531 285.695312 70.855469 274.855469 71.84375 267.296875 L 78.511719 271.207031 C 78.511719 271.207031 75.675781 256.324219 76.894531 248.953125 L 82.710938 256.203125 C 82.710938 256.203125 79.515625 238.335938 82.957031 230.476562 C 89.988281 235.535156 116.140625 258.34375 126.757812 323.039062 L 142.3125 323.039062 " fill-opacity="1" fill-rule="nonzero"/><path fill="#00979e" d="M 284.820312 228.195312 C 268.996094 234.011719 318.367188 237.890625 302.078125 255.660156 C 285.792969 273.429688 271.082031 280.214844 299.429688 285.382812 C 308.355469 287.011719 314.054688 290.511719 317.671875 294.542969 C 329.558594 276.3125 337.578125 255.324219 340.542969 232.746094 C 325.515625 215.148438 307.902344 201.996094 289.453125 203.644531 C 287.917969 203.78125 286.375 204.003906 284.820312 204.3125 C 284.820312 204.3125 300.644531 222.382812 284.820312 228.195312 " fill-opacity="1" fill-rule="nonzero"/><path fill="#00979e" d="M 231.109375 300.542969 C 231.109375 300.542969 224.726562 275.3125 217.234375 253.902344 C 216.765625 254.4375 216.296875 254.96875 215.832031 255.503906 C 199.535156 238.484375 180.855469 224.898438 162.859375 225.117188 C 159.886719 230.925781 158.796875 237.789062 166.933594 241.445312 C 182.757812 248.550781 189.21875 267.289062 172.421875 273.105469 C 155.628906 278.921875 192.632812 295.75 192.632812 295.75 L 231.109375 300.542969 " fill-opacity="1" fill-rule="nonzero"/><path fill="#093950" d="M 250.6875 165.914062 C 233.648438 157.011719 217.398438 156.015625 206.921875 156.695312 L 225.953125 149.714844 L 218.796875 145.839844 L 238.667969 142.363281 L 234.097656 137.988281 L 255.257812 138.585938 L 248.203125 134.414062 L 272.148438 133.617188 C 272.148438 133.617188 256.75 117.519531 227.738281 124.871094 C 207.414062 130.023438 197.429688 143.03125 193.273438 150.359375 C 195.394531 138.859375 197.109375 120.230469 190.085938 105.988281 C 179.160156 83.828125 150.148438 80.351562 150.148438 80.351562 L 170.21875 105.890625 L 161.773438 104.796875 L 177.867188 121.394531 L 168.628906 121.988281 C 179.738281 129.125 184.605469 146.464844 186.324219 154.519531 C 181.011719 143.957031 168.542969 129.335938 140.015625 127.953125 C 94.910156 125.765625 83.1875 156.625 83.1875 156.625 C 93.421875 149.027344 120.246094 147.828125 120.246094 147.828125 L 113.6875 156.375 C 119.550781 152.101562 143.789062 150.710938 143.789062 150.710938 L 138.722656 158.363281 C 151.042969 155.183594 166.144531 158.363281 166.144531 158.363281 L 158.195312 165.425781 L 181.855469 165.425781 C 135.777344 215.265625 124.277344 283.429688 121.675781 322.660156 L 143.179688 322.660156 C 143.171875 218.097656 179.515625 179.929688 188.695312 171.960938 C 193.9375 181.460938 191.972656 204.339844 191.972656 204.339844 L 198.464844 194.535156 C 200.847656 203.679688 198.996094 222.757812 198.996094 222.757812 L 206.941406 217.058594 C 209.0625 226.46875 206.015625 240.515625 206.015625 240.515625 L 215.15625 234.285156 L 212.640625 268.472656 C 212.640625 268.472656 242.046875 246.742188 229.328125 212.6875 C 219.347656 185.957031 201.285156 170.660156 193.980469 165.316406 C 216.800781 173.699219 230.621094 183.503906 230.621094 183.503906 L 230.023438 176.847656 L 248.105469 194.136719 L 250.886719 187.378906 L 258.835938 204.273438 L 260.324219 196.921875 C 268.171875 201.492188 276.121094 216.496094 276.121094 216.496094 C 276.121094 216.496094 279.597656 181.019531 250.6875 165.914062 " fill-opacity="1" fill-rule="nonzero"/><g clip-path="url(#23ff143c10)"><path fill="#093950" d="M 305.878906 310.269531 C 248.640625 303.472656 162.0625 289.625 125.375 291.089844 C 103.546875 291.964844 86.046875 297.988281 74.082031 303.71875 C 101.347656 339.359375 144.300781 362.355469 192.632812 362.355469 C 237.933594 362.355469 278.515625 342.152344 305.878906 310.269531 " fill-opacity="1" fill-rule="nonzero"/></g><path fill="#ffffff" d="M 75.304688 305.3125 C 87.089844 299.722656 104.222656 293.878906 125.449219 293.027344 C 152.210938 291.9375 206.949219 299.253906 255.238281 305.695312 C 272.625 308.015625 289.425781 310.253906 304.332031 312.035156 C 305.367188 310.871094 306.382812 309.695312 307.378906 308.496094 C 291.875 306.671875 274.132812 304.304688 255.75 301.855469 C 207.308594 295.390625 152.398438 288.070312 125.296875 289.152344 C 102.828125 290.050781 84.984375 296.242188 72.855469 302.105469 C 73.660156 303.183594 74.472656 304.253906 75.304688 305.3125 " fill-opacity="1" fill-rule="nonzero"/><g fill="#004447" fill-opacity="1"><g transform="translate(39.686547, 143.932658)"><g><path d="M -17.9375 -38.546875 C -16.320312 -40.816406 -14.425781 -42.648438 -12.25 -44.046875 C -10.070312 -45.441406 -7.78125 -46.375 -5.375 -46.84375 C -2.976562 -47.3125 -0.5625 -47.296875 1.875 -46.796875 C 4.3125 -46.296875 6.613281 -45.273438 8.78125 -43.734375 L 8.859375 -43.6875 C 11.003906 -42.164062 12.710938 -40.328125 13.984375 -38.171875 C 15.265625 -36.015625 16.082031 -33.71875 16.4375 -31.28125 C 16.800781 -28.851562 16.6875 -26.367188 16.09375 -23.828125 C 15.5 -21.296875 14.390625 -18.890625 12.765625 -16.609375 C 11.148438 -14.335938 9.253906 -12.503906 7.078125 -11.109375 C 4.898438 -9.722656 2.609375 -8.796875 0.203125 -8.328125 C -2.203125 -7.859375 -4.628906 -7.875 -7.078125 -8.375 C -9.523438 -8.882812 -11.8125 -9.898438 -13.9375 -11.421875 L -14.03125 -11.484375 C -16.15625 -12.992188 -17.859375 -14.828125 -19.140625 -16.984375 C -20.421875 -19.148438 -21.242188 -21.445312 -21.609375 -23.875 C -21.972656 -26.3125 -21.851562 -28.796875 -21.25 -31.328125 C -20.65625 -33.867188 -19.550781 -36.273438 -17.9375 -38.546875 Z M 4.09375 -22.890625 C 4.757812 -23.828125 5.175781 -24.800781 5.34375 -25.8125 C 5.519531 -26.832031 5.5 -27.820312 5.28125 -28.78125 C 5.0625 -29.738281 4.65625 -30.640625 4.0625 -31.484375 C 3.46875 -32.328125 2.738281 -33.054688 1.875 -33.671875 L 1.78125 -33.734375 C 0.914062 -34.347656 -0.0195312 -34.796875 -1.03125 -35.078125 C -2.039062 -35.359375 -3.039062 -35.445312 -4.03125 -35.34375 C -5.03125 -35.25 -5.984375 -34.945312 -6.890625 -34.4375 C -7.796875 -33.9375 -8.585938 -33.210938 -9.265625 -32.265625 C -9.921875 -31.335938 -10.332031 -30.363281 -10.5 -29.34375 C -10.675781 -28.332031 -10.648438 -27.34375 -10.421875 -26.375 C -10.203125 -25.414062 -9.800781 -24.515625 -9.21875 -23.671875 C -8.644531 -22.835938 -7.921875 -22.109375 -7.046875 -21.484375 L -6.96875 -21.4375 C -6.09375 -20.8125 -5.148438 -20.363281 -4.140625 -20.09375 C -3.128906 -19.820312 -2.125 -19.734375 -1.125 -19.828125 C -0.132812 -19.921875 0.8125 -20.21875 1.71875 -20.71875 C 2.625 -21.21875 3.414062 -21.941406 4.09375 -22.890625 Z M 4.09375 -22.890625 "/></g></g></g><g fill="#004447" fill-opacity="1"><g transform="translate(61.195111, 113.258438)"><g><path d="M -14.109375 -36.21875 L -4.9375 -26.25 L -6.53125 -43.1875 L 3.796875 -52.703125 L 5.1875 -32.609375 L 28.515625 -26.265625 L 17.90625 -16.484375 L 4.9375 -20.140625 L 5.1875 -15.265625 L 10.40625 -9.59375 L 1.515625 -1.390625 L -23 -28.015625 Z M -14.109375 -36.21875 "/></g></g></g><g fill="#004447" fill-opacity="1"><g transform="translate(87.096921, 90.139751)"><g><path d="M -18.6875 -31.0625 L -8.71875 -37.90625 L 11.765625 -8.078125 L 1.796875 -1.234375 Z M -18.6875 -31.0625 "/></g></g></g><g fill="#004447" fill-opacity="1"><g transform="translate(97.491108, 81.637996)"><g><path d="M -13.96875 -33.453125 L -3.78125 -38.40625 L 14.78125 -29.65625 L 7.78125 -44.03125 L 18.578125 -49.265625 L 34.40625 -16.71875 L 24.734375 -12.015625 L 5.34375 -21.15625 L 12.640625 -6.140625 L 1.859375 -0.90625 Z M -13.96875 -33.453125 "/></g></g></g><g fill="#004447" fill-opacity="1"><g transform="translate(129.3852, 65.524668)"><g><path d="M -0.546875 0.140625 L 5.625 -38.875 L 17.296875 -41.71875 L 40.734375 -9.921875 L 27.984375 -6.8125 L 24.953125 -11.078125 L 12.65625 -8.078125 L 12.015625 -2.921875 Z M 20.015625 -18.71875 L 14.734375 -26.46875 L 13.59375 -17.140625 Z M 20.015625 -18.71875 "/></g></g></g><g fill="#004447" fill-opacity="1"><g transform="translate(163.886611, 55.319996)"><g><path d="M 0.6875 -36.1875 L 13.34375 -35.953125 L 18.140625 -18.46875 L 24.3125 -35.828125 L 34.75 -35.640625 L 40.265625 -18.0625 L 45.6875 -35.328125 L 58.140625 -35.09375 L 45.625 1.125 L 35.09375 0.9375 L 29.078125 -17.1875 L 22.375 0.6875 L 11.84375 0.484375 Z M 0.6875 -36.1875 "/></g></g></g><g fill="#004447" fill-opacity="1"><g transform="translate(215.668608, 56.608392)"><g><path d="M -0.546875 -0.15625 L 24.0625 -31.03125 L 35.609375 -27.75 L 40.328125 11.453125 L 27.703125 7.875 L 27.171875 2.671875 L 15 -0.78125 L 11.890625 3.375 Z M 26.640625 -6.390625 L 25.875 -15.75 L 20.28125 -8.203125 Z M 26.640625 -6.390625 "/></g></g></g><g fill="#004447" fill-opacity="1"><g transform="translate(252.167068, 67.737179)"><g/></g></g><g fill="#004447" fill-opacity="1"><g transform="translate(263.916635, 71.505331)"><g><path d="M 21.703125 -29.03125 L 32.21875 -22.078125 L 31.65625 -7.171875 L 45.15625 -13.5 L 55.671875 -6.546875 L 35.6875 23.625 L 25.640625 16.984375 L 35.546875 2.03125 L 21.5 8.171875 L 21.328125 8.046875 L 21.5 -7.28125 L 11.59375 7.671875 L 1.71875 1.140625 Z M 21.703125 -29.03125 "/></g></g></g><g fill="#004447" fill-opacity="1"><g transform="translate(297.522159, 93.849267)"><g><path d="M 27.21875 -23.9375 L 48.890625 -1.96875 L 41.8125 5 L 28.484375 -8.5 L 25.875 -5.921875 L 38.28125 6.65625 L 32.0625 12.78125 L 19.65625 0.203125 L 16.859375 2.96875 L 30.375 16.65625 L 23.3125 23.625 L 1.453125 1.46875 Z M 27.21875 -23.9375 "/></g></g></g><g fill="#004447" fill-opacity="1"><g transform="translate(319.211519, 115.339969)"><g><path d="M 31.0625 -18.6875 L 48.453125 6.8125 L 40.234375 12.421875 L 29.546875 -3.25 L 26.53125 -1.203125 L 36.484375 13.390625 L 29.265625 18.3125 L 19.3125 3.71875 L 16.0625 5.9375 L 26.890625 21.828125 L 18.6875 27.421875 L 1.15625 1.703125 Z M 31.0625 -18.6875 "/></g></g></g></svg>