<svg xmlns="http://www.w3.org/2000/svg" xmlns:xlink="http://www.w3.org/1999/xlink" width="500" zoomAndPan="magnify" viewBox="0 0 375 374.999991" height="500" preserveAspectRatio="xMidYMid meet" version="1.0"><defs><g/><clipPath id="12c1ddfc27"><path d="M 54.726562 50.371094 L 322.304688 50.371094 L 322.304688 317.953125 L 54.726562 317.953125 Z M 54.726562 50.371094 " clip-rule="nonzero"/></clipPath><clipPath id="bc535597b8"><path d="M 188.515625 317.953125 C 152.796875 317.953125 119.160156 304.046875 93.921875 278.757812 C 68.628906 253.515625 54.726562 219.882812 54.726562 184.164062 C 54.726562 148.441406 68.628906 114.808594 93.921875 89.570312 C 119.160156 64.277344 152.796875 50.371094 188.515625 50.371094 C 224.234375 50.371094 257.871094 64.277344 283.109375 89.570312 C 308.402344 114.859375 322.304688 148.441406 322.304688 184.164062 C 322.304688 219.882812 308.402344 253.515625 283.109375 278.757812 C 257.871094 304.046875 224.234375 317.953125 188.515625 317.953125 Z M 188.515625 58.394531 C 154.933594 58.394531 123.332031 71.496094 99.589844 95.238281 C 75.847656 118.980469 62.746094 150.582031 62.746094 184.164062 C 62.746094 217.742188 75.847656 249.347656 99.589844 273.085938 C 123.332031 296.828125 154.933594 309.929688 188.515625 309.929688 C 222.097656 309.929688 253.699219 296.828125 277.441406 273.085938 C 301.183594 249.347656 314.285156 217.742188 314.285156 184.164062 C 314.285156 150.582031 301.183594 118.980469 277.441406 95.238281 C 253.699219 71.496094 222.097656 58.394531 188.515625 58.394531 Z M 188.515625 58.394531 " clip-rule="nonzero"/></clipPath><clipPath id="730fd38793"><path d="M 96.464844 96.464844 L 278.714844 96.464844 L 278.714844 278.714844 L 96.464844 278.714844 Z M 96.464844 96.464844 " clip-rule="nonzero"/></clipPath></defs><g clip-path="url(#12c1ddfc27)"><g clip-path="url(#bc535597b8)"><path fill="#112241" d="M 54.726562 50.371094 L 322.304688 50.371094 L 322.304688 317.953125 L 54.726562 317.953125 Z M 54.726562 50.371094 " fill-opacity="1" fill-rule="nonzero"/></g></g><path fill="#f2dea2" d="M 187.515625 100.386719 C 142.371094 100.386719 105.09375 134.578125 100.816406 178.984375 C 103.605469 176.730469 106.429688 174.210938 109.371094 171.585938 C 112.351562 168.917969 115.429688 166.167969 118.574219 163.632812 C 121.863281 160.945312 138.589844 159.964844 142.550781 163.777344 C 147.53125 168.546875 152.253906 172.886719 156.582031 176.695312 C 156.644531 176.734375 156.703125 176.773438 156.761719 176.824219 C 172.8125 190.945312 181.464844 196.113281 184.113281 197.539062 C 190.234375 193.898438 199.140625 193.84375 204.234375 199.390625 C 207.519531 198.683594 210.9375 199.136719 214.066406 200.582031 C 213.679688 198.164062 213.839844 195.667969 214.605469 193.363281 C 215.617188 190.285156 218.160156 186.023438 224.488281 183.171875 C 231.882812 179.8125 240.351562 180.757812 246.808594 184.9375 C 242.363281 177.738281 236.292969 174.535156 232.410156 173.164062 C 225.855469 170.8125 219.804688 171.371094 216.703125 172.96875 C 216.214844 173.222656 215.792969 173.5 215.46875 173.792969 C 216.046875 174.480469 216.511719 175.417969 216.796875 176.535156 C 217.636719 179.839844 216.65625 184.003906 212.566406 185.851562 C 209.542969 187.210938 206.339844 186.792969 203.773438 184.699219 C 200.203125 181.789062 198.695312 176.382812 199.921875 170.921875 C 201.765625 162.664062 207.617188 158.414062 212.199219 156.300781 C 219.539062 152.925781 228.800781 152.695312 235.070312 155.652344 C 244.046875 153.289062 254.351562 155.027344 262.804688 160.34375 C 266.828125 162.882812 270.183594 166.085938 272.78125 169.789062 C 264.621094 129.902344 229.582031 100.386719 187.515625 100.386719 Z M 230.910156 196.785156 C 230.421875 196.851562 229.960938 196.988281 229.554688 197.175781 C 229.78125 197.3125 230.007812 197.460938 230.222656 197.628906 C 232.328125 199.261719 233.644531 202.601562 231.847656 206.367188 C 230.734375 208.722656 228.34375 210.359375 225.460938 210.738281 C 224.890625 210.8125 224.320312 210.8125 223.753906 210.78125 C 224.402344 212.339844 224.839844 213.964844 225.046875 215.621094 C 228.351562 215.757812 231.996094 214.023438 234.652344 210.925781 C 237.488281 207.605469 238.449219 203.675781 237.230469 200.375 C 235.757812 197.765625 233.398438 196.410156 230.910156 196.785156 " fill-opacity="1" fill-rule="nonzero"/><path fill="#ffffff" d="M 274.546875 184.785156 C 271.296875 180.167969 264.625 179.171875 260.996094 180.011719 C 259.960938 180.246094 259.074219 180.570312 258.277344 181 C 255.40625 182.472656 253.714844 185.277344 253.921875 188.160156 C 254.089844 190.511719 255.441406 192.285156 257.625 193.035156 C 258.894531 193.464844 260.207031 192.71875 260.808594 191.78125 C 261.34375 190.964844 261.277344 190.1875 260.613281 189.480469 C 260.234375 189.074219 260.046875 188.519531 260.097656 187.964844 C 260.144531 187.40625 260.433594 186.902344 260.882812 186.570312 C 262.90625 185.066406 265.683594 185.199219 268.140625 186.898438 C 270.789062 188.730469 272.953125 192.21875 274.0625 197.109375 C 274.410156 193.945312 274.605469 190.75 274.605469 187.515625 C 274.605469 186.59375 274.578125 185.699219 274.546875 184.785156 Z M 206.253906 181.65625 C 207.238281 182.464844 208.855469 183.230469 210.949219 182.273438 C 212.207031 181.703125 212.9375 180.722656 213.109375 179.351562 C 213.289062 177.925781 212.800781 176.742188 212.496094 176.355469 C 212.015625 176.28125 211.574219 176.039062 211.261719 175.652344 C 210.855469 175.164062 210.71875 174.496094 210.890625 173.878906 C 211.390625 172.101562 212.78125 170.578125 214.90625 169.484375 C 219.449219 167.140625 226.496094 167.058594 233.03125 169.234375 C 239.5 167.042969 252.730469 168.699219 258.160156 176.761719 C 258.78125 176.535156 259.429688 176.34375 260.128906 176.1875 C 263.273438 175.460938 268.476562 175.671875 272.863281 178.128906 C 270.550781 172.257812 266.371094 167.226562 260.714844 163.664062 C 252.953125 158.785156 243.484375 157.269531 235.414062 159.625 C 234.921875 159.765625 234.394531 159.714844 233.949219 159.472656 C 228.765625 156.71875 220.3125 156.886719 213.839844 159.867188 C 210.058594 161.605469 205.242188 165.085938 203.753906 171.78125 C 202.71875 176.355469 204.265625 180.035156 206.253906 181.65625 Z M 226.105469 186.75 C 222.117188 188.542969 219.433594 191.25 218.328125 194.59375 C 217.339844 197.585938 217.664062 201.003906 219.195312 203.742188 C 219.40625 204.078125 219.644531 204.488281 219.929688 204.804688 C 221.246094 206.367188 223.058594 207.105469 224.957031 206.84375 C 226.484375 206.640625 227.769531 205.816406 228.304688 204.679688 C 229.222656 202.753906 228.617188 201.351562 227.816406 200.726562 C 227.398438 200.402344 227.027344 200.371094 226.941406 200.4375 C 226.296875 200.984375 225.382812 201.039062 224.660156 200.605469 C 223.941406 200.171875 223.582031 199.324219 223.765625 198.5 C 224.421875 195.585938 227.003906 193.382812 230.347656 192.902344 C 233.609375 192.429688 238.003906 193.671875 240.699219 198.527344 C 240.710938 198.546875 240.714844 198.566406 240.726562 198.582031 C 240.726562 198.585938 240.726562 198.585938 240.726562 198.585938 C 240.921875 198.925781 241.109375 199.261719 241.253906 199.59375 C 243.519531 204.527344 243.492188 210.609375 241.171875 216.234375 C 238.527344 222.648438 233.199219 227.785156 226.082031 230.832031 C 226.335938 232.789062 226.261719 234.722656 225.886719 236.589844 C 230.109375 235.011719 235.191406 235.121094 239.703125 237.070312 C 258.964844 222.398438 254.308594 201.5 251.089844 195.242188 C 246.511719 186.375 235.304688 182.574219 226.105469 186.75 Z M 239.199219 241.148438 C 239.144531 241.128906 239.085938 241.113281 239.03125 241.082031 C 233.808594 238.398438 227.160156 239.023438 223.566406 242.542969 L 223.15625 242.980469 C 222.960938 243.3125 222.703125 243.660156 222.402344 244.023438 C 221.699219 245.179688 221.351562 246.554688 221.445312 247.863281 C 221.5625 250.261719 222.910156 252.035156 224.65625 252.128906 C 226.519531 252.140625 227.113281 251.105469 227.324219 250.632812 C 227.597656 250.015625 227.636719 249.164062 227.125 248.648438 C 226.601562 248.125 226.417969 247.34375 226.648438 246.636719 C 226.886719 245.933594 227.496094 245.425781 228.234375 245.316406 C 229.648438 245.109375 231.003906 245.234375 232.164062 245.65625 C 232.164062 245.65625 232.167969 245.65625 232.167969 245.65625 C 232.1875 245.664062 232.210938 245.675781 232.234375 245.683594 C 235.316406 246.714844 237.414062 249.683594 237.765625 253.628906 C 237.910156 255.246094 237.738281 257.132812 237.140625 259.054688 C 240.601562 256.65625 243.890625 254 246.992188 251.089844 C 245.332031 245.414062 241.902344 242.5625 239.199219 241.148438 Z M 221.960938 230.035156 C 221.59375 228.429688 220.96875 226.875 220.113281 225.433594 C 219.785156 224.867188 219.753906 224.183594 220.027344 223.589844 C 220.9375 221.671875 221.363281 219.554688 221.253906 217.46875 C 221.15625 213.863281 219.609375 210.242188 217.003906 207.5 C 213.429688 203.664062 208.496094 202.125 204.097656 203.472656 C 203.3125 203.734375 202.445312 203.4375 201.945312 202.773438 C 198.210938 197.742188 190.191406 198.015625 185.34375 201.402344 C 182.421875 203.421875 180.800781 206.390625 180.769531 209.777344 C 180.753906 211.808594 181.441406 213.429688 182.648438 214.214844 C 183.554688 214.796875 184.644531 214.855469 185.726562 214.363281 C 186.210938 214.152344 186.652344 213.503906 186.832031 212.746094 C 187.011719 212.007812 186.863281 211.535156 186.792969 211.449219 C 185.859375 211.113281 185.382812 210.167969 185.601562 209.199219 C 186.410156 205.707031 189.480469 203.449219 193.109375 203.691406 C 196.140625 203.816406 199.585938 205.601562 201.050781 209.210938 C 204.460938 208.441406 208.171875 209.339844 211.179688 211.757812 C 217.160156 216.585938 218.332031 225.957031 213.855469 233.078125 C 211.769531 236.347656 208.78125 238.867188 204.949219 240.574219 C 201.855469 241.941406 198.628906 242.542969 195.382812 242.542969 C 194.703125 242.542969 194.019531 242.511719 193.339844 242.460938 C 198.230469 244.511719 203.628906 246.035156 209.359375 246.472656 L 209.683594 246.472656 C 213.257812 246.472656 216.828125 244.6875 219.242188 241.6875 C 219.507812 241.292969 219.753906 240.9375 220.027344 240.621094 C 222.117188 237.535156 222.804688 233.777344 221.960938 230.035156 Z M 161.828125 240.582031 C 161.105469 242.113281 160.179688 243.457031 159.070312 244.582031 C 159.921875 245.3125 160.929688 246.195312 162.074219 247.207031 C 167.777344 252.226562 176.398438 259.8125 185.308594 265.707031 L 185.703125 265.976562 C 191.636719 269.933594 196.765625 273.355469 201.847656 273.417969 C 205.445312 272.828125 208.988281 271.996094 212.464844 270.957031 C 205.824219 269.871094 198.476562 266.59375 190.121094 261.058594 C 179.996094 254.351562 168.707031 245.871094 161.828125 240.582031 Z M 168.789062 225.683594 C 168.800781 225.695312 168.816406 225.707031 168.824219 225.714844 C 168.828125 225.71875 168.832031 225.722656 168.832031 225.722656 C 169.421875 226.3125 169.945312 226.839844 170.503906 227.359375 C 170.503906 227.359375 170.507812 227.359375 170.507812 227.359375 C 170.515625 227.367188 170.523438 227.375 170.53125 227.378906 C 170.53125 227.382812 170.53125 227.382812 170.53125 227.386719 C 170.539062 227.390625 170.542969 227.398438 170.550781 227.402344 C 179.257812 235.214844 192.441406 241.8125 203.355469 236.992188 C 206.460938 235.601562 208.878906 233.582031 210.535156 230.988281 C 213.96875 225.523438 213.175781 218.414062 208.71875 214.808594 C 205.746094 212.421875 202.539062 212.5625 200.546875 213.496094 C 198.328125 214.574219 197.164062 216.640625 197.464844 219.003906 C 197.707031 220.96875 198.707031 222.207031 200.148438 222.320312 C 201.117188 222.449219 202.359375 221.871094 202.78125 220.457031 C 203.027344 219.621094 203.796875 219.140625 204.679688 219.054688 C 205.5625 219.070312 206.324219 219.65625 206.550781 220.507812 C 207.351562 223.453125 206.238281 226.605469 203.578125 228.9375 C 200.246094 231.863281 194.089844 233.65625 187.859375 231.066406 C 179.429688 227.539062 173.589844 220.527344 168.441406 214.339844 C 167.90625 213.695312 167.386719 213.074219 166.871094 212.464844 C 167.96875 216.46875 167.910156 220.257812 166.636719 223.457031 C 167.347656 224.226562 168.058594 224.980469 168.789062 225.683594 Z M 143.621094 204.042969 C 151.460938 206.066406 156.738281 211.023438 158.09375 217.640625 C 158.308594 218.699219 157.628906 219.738281 156.5625 219.957031 C 156.5 219.96875 156.433594 219.96875 156.371094 219.976562 C 156.300781 219.984375 156.238281 219.992188 156.171875 219.992188 C 156.164062 219.992188 156.160156 219.992188 156.152344 219.992188 C 156.140625 219.992188 156.128906 219.992188 156.117188 219.988281 C 156.097656 219.992188 156.082031 219.992188 156.058594 219.992188 C 155.109375 220.078125 154.722656 221.40625 154.683594 221.566406 C 154.445312 222.707031 154.675781 224.886719 157.042969 225.816406 C 158.296875 226.292969 159.410156 225.933594 160.121094 225.554688 C 161.085938 225.03125 161.953125 224.113281 162.558594 222.984375 C 162.574219 222.953125 162.578125 222.921875 162.59375 222.890625 C 163.570312 221.023438 165.332031 215.789062 160.515625 207.484375 C 159.949219 206.503906 159.3125 205.605469 158.617188 204.816406 C 158.617188 204.8125 158.613281 204.804688 158.609375 204.800781 C 158.601562 204.792969 158.59375 204.789062 158.589844 204.78125 C 150.535156 195.164062 133.105469 191.601562 118.058594 196.515625 C 112.253906 198.414062 106.945312 201.421875 102.246094 205.421875 C 102.972656 208.914062 103.917969 212.382812 105.09375 215.785156 C 116.851562 203.949219 133 201.28125 143.621094 204.042969 Z M 159.457031 229.851562 C 159.0625 229.917969 158.664062 229.957031 158.265625 229.957031 C 157.371094 229.957031 156.488281 229.800781 155.640625 229.480469 C 151.429688 227.828125 150.207031 223.808594 150.84375 220.765625 C 151.089844 219.601562 151.585938 218.628906 152.253906 217.863281 C 146.46875 214.527344 139.917969 213.421875 133.296875 214.542969 C 137.96875 215.285156 142.292969 217.234375 145.757812 220.316406 C 150.90625 224.894531 153.136719 231.273438 151.726562 237.382812 C 151.523438 238.28125 150.675781 238.722656 149.789062 238.902344 C 148.863281 238.894531 148.074219 238.238281 147.890625 237.332031 C 147.722656 236.5 146.945312 236.167969 146.328125 236.132812 C 145.914062 236.074219 144.527344 236.171875 143.917969 238.058594 C 143.421875 239.566406 143.867188 240.816406 144.324219 241.601562 C 145.492188 243.734375 147.90625 244.878906 150.542969 244.53125 C 152.203125 244.339844 153.664062 243.816406 154.914062 242.96875 C 156.867188 241.648438 158.257812 239.605469 159.03125 236.910156 C 159.609375 234.796875 159.75 232.382812 159.457031 229.851562 Z M 108.4375 180.601562 C 109.640625 180.8125 110.644531 181.351562 111.410156 182.160156 C 115.863281 178.289062 120.039062 176.710938 123.117188 177.820312 C 123.824219 178.074219 124.4375 178.476562 124.941406 178.988281 C 127.203125 176.183594 129.566406 174.804688 132.09375 174.78125 L 132.15625 174.78125 C 135.105469 174.78125 137.90625 176.664062 140.675781 180.519531 C 141.75 179.585938 143.035156 179.050781 144.484375 178.96875 C 146.726562 178.859375 149.046875 179.8125 151.191406 181.199219 C 151.207031 180.746094 151.253906 180.296875 151.371094 179.878906 C 151.523438 179.347656 151.800781 178.726562 152.289062 178.132812 C 148.390625 174.652344 144.21875 170.804688 139.832031 166.609375 C 137.628906 164.488281 123.179688 164.933594 121.046875 166.675781 C 117.972656 169.160156 114.929688 171.875 111.984375 174.507812 C 109.5 176.730469 107.097656 178.875 104.703125 180.867188 C 106 180.527344 107.285156 180.394531 108.4375 180.601562 Z M 148.171875 232.535156 C 147.851562 229.136719 146.121094 225.890625 143.148438 223.246094 C 138.609375 219.207031 130.253906 216.152344 120.375 219.625 C 116.761719 221.910156 113.449219 224.8125 110.503906 228.25 C 111.261719 229.671875 111.992188 230.96875 112.714844 232.171875 C 117.214844 227.429688 123.785156 225.507812 128.765625 225.753906 C 133.628906 226 137.496094 228.121094 139.378906 231.570312 C 139.660156 232.085938 139.695312 232.699219 139.476562 233.242188 C 139.257812 233.789062 138.804688 234.203125 138.246094 234.378906 C 136.007812 235.085938 135.570312 236.703125 135.5 237.597656 C 135.390625 239.144531 136.195312 240.648438 137.457031 241.296875 C 137.484375 241.3125 137.515625 241.324219 137.546875 241.34375 C 138.265625 241.671875 139.125 241.722656 140.070312 241.492188 C 139.660156 239.984375 139.683594 238.378906 140.183594 236.839844 C 141.152344 233.867188 143.714844 232.046875 146.550781 232.214844 C 147.117188 232.25 147.664062 232.355469 148.171875 232.535156 " fill-opacity="1" fill-rule="nonzero"/><path fill="#0097b2" d="M 265.90625 190.121094 C 265.695312 189.976562 265.367188 189.773438 264.984375 189.625 C 265.28125 191.050781 264.988281 192.554688 264.09375 193.921875 C 263.457031 194.90625 262.59375 195.6875 261.617188 196.226562 C 264.160156 198.875 265.96875 202.785156 266.847656 207.644531 C 267.738281 212.554688 267.613281 218.488281 266.25 224.753906 C 267.121094 222.90625 267.9375 221.019531 268.683594 219.09375 C 268.695312 219.042969 268.703125 218.992188 268.71875 218.941406 C 273.832031 201.238281 269.109375 192.347656 265.90625 190.121094 Z M 239.660156 172.304688 C 243.40625 174.597656 247.507812 178.199219 250.722656 183.792969 C 251.5 181.78125 252.871094 179.984375 254.695312 178.628906 C 251.4375 174.101562 244.832031 172.390625 239.660156 172.304688 Z M 230.914062 252.214844 C 229.824219 254.707031 227.359375 256.140625 224.464844 256.046875 C 221.285156 255.871094 218.742188 253.519531 217.859375 250.199219 C 216.089844 250.40625 214.363281 250.507812 212.664062 250.507812 C 211.640625 250.507812 210.621094 250.46875 209.601562 250.398438 L 209.246094 250.398438 C 209.242188 250.398438 209.238281 250.394531 209.234375 250.394531 C 209.1875 250.394531 209.144531 250.394531 209.101562 250.394531 C 209.09375 250.394531 209.09375 250.390625 209.089844 250.390625 C 208.808594 250.386719 208.507812 250.371094 208.242188 250.320312 C 208.210938 250.316406 208.1875 250.300781 208.160156 250.292969 C 203.132812 249.816406 198.363281 248.59375 193.957031 246.933594 C 202.328125 253.050781 211.203125 258.121094 219.019531 259.242188 C 224.914062 260.105469 229.074219 258.742188 230.703125 255.398438 C 231.371094 254.035156 231.480469 252.519531 231.242188 251.25 C 231.15625 251.574219 231.054688 251.894531 230.914062 252.214844 Z M 200.675781 226.253906 C 200.394531 226.265625 200.109375 226.257812 199.820312 226.230469 C 197.292969 226.019531 194.144531 224.125 193.570312 219.488281 C 193.128906 215.957031 194.613281 212.734375 197.496094 210.75 C 196.730469 208.757812 194.710938 207.683594 192.949219 207.613281 C 192.351562 207.558594 190.738281 207.648438 189.871094 209.003906 C 190.453125 209.746094 190.796875 210.730469 190.835938 211.859375 C 190.910156 214.089844 189.726562 216.894531 187.320312 217.949219 C 185.035156 218.984375 182.539062 218.824219 180.507812 217.503906 C 178.15625 215.972656 176.816406 213.140625 176.847656 209.742188 C 176.878906 206.0625 178.265625 202.757812 180.777344 200.167969 C 176.929688 197.914062 168.75 192.496094 155.25 180.710938 C 155.1875 180.808594 155.160156 180.894531 155.144531 180.949219 C 154.886719 181.851562 155.53125 184.117188 158.1875 187.523438 C 158.464844 187.824219 158.828125 188.269531 159.195312 188.710938 C 159.882812 189.546875 159.773438 190.796875 158.9375 191.484375 C 158.570312 191.789062 158.125 191.941406 157.683594 191.941406 C 157.125 191.941406 156.570312 191.699219 156.191406 191.230469 L 156.164062 191.203125 C 155.835938 190.800781 155.507812 190.40625 155.179688 190.039062 C 155.175781 190.03125 155.171875 190.027344 155.167969 190.019531 C 155.164062 190.019531 155.160156 190.015625 155.160156 190.011719 C 151.222656 185.472656 147.238281 182.722656 144.710938 182.886719 C 143.949219 182.929688 143.351562 183.269531 142.832031 183.925781 C 143.332031 184.800781 143.820312 185.707031 144.28125 186.660156 C 144.757812 187.632812 144.359375 188.804688 143.382812 189.277344 C 142.417969 189.75 141.234375 189.347656 140.757812 188.371094 C 140.050781 186.925781 139.296875 185.566406 138.511719 184.332031 C 136.199219 180.648438 134 178.703125 132.152344 178.703125 L 132.128906 178.703125 C 130.359375 178.71875 128.332031 180.53125 126.273438 183.941406 C 125.832031 184.671875 124.992188 185.042969 124.148438 184.839844 C 123.320312 184.640625 122.710938 183.941406 122.636719 183.09375 C 122.523438 181.78125 121.957031 181.574219 121.769531 181.503906 C 120.28125 180.960938 116.695312 182.320312 112.363281 186.632812 C 110.644531 188.3125 108.894531 190.378906 107.160156 192.78125 C 106.773438 193.3125 106.175781 193.59375 105.570312 193.59375 C 105.167969 193.59375 104.769531 193.476562 104.417969 193.222656 C 103.539062 192.589844 103.339844 191.363281 103.976562 190.484375 C 105.511719 188.363281 107.058594 186.492188 108.597656 184.878906 C 108.367188 184.632812 108.085938 184.519531 107.757812 184.464844 C 105.65625 184.109375 101.875 186.070312 100.390625 187.640625 C 100.398438 192.199219 100.753906 196.679688 101.4375 201.019531 C 105.953125 197.492188 110.957031 194.785156 116.363281 192.957031 C 118.582031 190.632812 120.277344 187.671875 120.296875 187.644531 C 120.828125 186.699219 122.027344 186.375 122.96875 186.90625 C 123.914062 187.445312 124.242188 188.636719 123.707031 189.582031 C 123.671875 189.644531 123.28125 190.324219 122.640625 191.292969 C 137.554688 188.375 153.03125 192.445312 161.25 201.867188 C 164.742188 203.773438 167.859375 207.507812 171.457031 211.828125 C 176.320312 217.667969 181.828125 224.292969 189.367188 227.445312 C 193.835938 229.304688 198.191406 228.207031 200.675781 226.253906 Z M 165.6875 196.519531 C 165.300781 197.023438 164.71875 197.285156 164.136719 197.285156 C 163.714844 197.285156 163.292969 197.148438 162.933594 196.875 C 162.304688 196.386719 161.960938 196.039062 161.960938 196.039062 C 161.207031 195.269531 161.210938 194.027344 161.976562 193.265625 C 162.738281 192.507812 163.972656 192.507812 164.726562 193.257812 C 164.769531 193.289062 164.976562 193.496094 165.335938 193.769531 C 166.191406 194.433594 166.347656 195.667969 165.6875 196.519531 Z M 135.710938 244.808594 C 133.351562 243.46875 131.070312 242.445312 128.863281 241.730469 C 135.210938 246.074219 141.164062 252.953125 146.367188 258.964844 C 149.527344 262.621094 152.511719 266.058594 155.066406 268.355469 C 160.390625 270.488281 165.867188 272.074219 171.453125 273.117188 C 166.257812 270.125 160.824219 265.824219 154.808594 260.007812 C 147.300781 252.761719 141.230469 247.929688 135.710938 244.808594 Z M 131.585938 237.316406 C 131.75 235.042969 132.851562 233.117188 134.636719 231.835938 C 133.207031 230.566406 131.097656 229.800781 128.570312 229.675781 C 124.21875 229.449219 118.5 231.234375 114.898438 235.617188 C 115.253906 236.160156 115.613281 236.691406 115.984375 237.210938 C 120.976562 236.035156 126.128906 236.46875 131.59375 238.53125 C 131.5625 238.128906 131.558594 237.726562 131.585938 237.316406 " fill-opacity="1" fill-rule="nonzero"/><path fill="#ff914d" d="M 262.992188 208.34375 C 261.960938 202.660156 259.449219 198.523438 256.097656 196.988281 C 256.066406 196.976562 256.035156 196.964844 256.007812 196.953125 C 259.042969 206.203125 260.636719 225.09375 243.375 239.175781 C 246.328125 241.339844 248.601562 244.359375 250.042969 248.003906 C 261.625 234.929688 264.910156 218.972656 262.992188 208.34375 Z M 225.394531 219.554688 C 225.300781 219.554688 225.207031 219.542969 225.113281 219.542969 C 224.972656 221.164062 224.605469 222.78125 223.988281 224.324219 C 224.4375 225.175781 224.816406 226.054688 225.136719 226.957031 C 231 224.289062 235.371094 220.011719 237.546875 214.738281 C 237.820312 214.070312 238.046875 213.394531 238.246094 212.71875 C 238.046875 212.972656 237.84375 213.226562 237.632812 213.472656 C 234.332031 217.328125 229.75 219.554688 225.394531 219.554688 Z M 222.25 263.414062 C 221.09375 263.417969 219.832031 263.328125 218.460938 263.128906 C 207.175781 261.507812 193.027344 252.707031 173.945312 235.441406 C 173.882812 235.394531 173.84375 235.355469 173.789062 235.3125 C 171.824219 233.792969 169.886719 232.144531 167.859375 230.257812 C 167.851562 230.25 167.84375 230.242188 167.839844 230.234375 C 167.269531 229.707031 166.738281 229.175781 166.207031 228.644531 C 166.132812 228.585938 166.0625 228.511719 165.996094 228.4375 C 165.503906 227.960938 165.011719 227.457031 164.53125 226.949219 C 164.113281 227.414062 163.675781 227.851562 163.195312 228.222656 C 163.660156 231.160156 163.636719 234.023438 163.121094 236.628906 C 169.804688 241.78125 181.703125 250.773438 192.292969 257.789062 C 206.1875 267.003906 216.832031 269.523438 225.785156 265.738281 C 225.808594 265.726562 225.933594 265.667969 226.046875 265.617188 C 226.398438 265.441406 226.753906 265.261719 227.105469 265.066406 C 227.1875 265.015625 227.277344 264.96875 227.367188 264.921875 C 227.378906 264.917969 227.386719 264.914062 227.394531 264.90625 C 230.261719 263.375 232.003906 261.234375 232.957031 259.074219 C 231.285156 261.109375 228.105469 263.414062 222.25 263.414062 Z M 183.132812 268.976562 C 174.011719 262.933594 164.917969 254.933594 159.480469 250.152344 C 158.007812 248.851562 156.777344 247.769531 155.832031 246.972656 C 154.367188 247.734375 152.757812 248.222656 151.015625 248.425781 C 150.542969 248.484375 150.074219 248.515625 149.609375 248.515625 C 148.917969 248.515625 148.242188 248.429688 147.585938 248.304688 C 150.652344 250.785156 153.941406 253.71875 157.535156 257.1875 C 169.988281 269.226562 179.617188 274.425781 189.738281 274.5625 L 189.75 274.5625 C 190.425781 274.554688 191.054688 274.523438 191.640625 274.488281 L 191.640625 274.496094 C 191.777344 274.492188 191.90625 274.488281 192.019531 274.488281 C 189.210938 273.03125 186.40625 271.160156 183.527344 269.242188 Z M 151.785156 213.222656 C 149.753906 210.722656 146.644531 208.875 142.640625 207.839844 C 132.417969 205.203125 116.945312 208.550781 106.628906 219.90625 C 107.226562 221.421875 107.890625 222.945312 108.613281 224.472656 C 111.574219 221.226562 114.855469 218.453125 118.414062 216.21875 C 118.4375 216.203125 118.464844 216.195312 118.484375 216.179688 C 118.488281 216.179688 118.488281 216.175781 118.492188 216.175781 C 118.507812 216.167969 118.519531 216.160156 118.535156 216.152344 C 118.542969 216.148438 118.546875 216.140625 118.554688 216.136719 C 118.5625 216.132812 118.570312 216.132812 118.578125 216.128906 C 129.34375 209.421875 141.558594 208.480469 151.785156 213.222656 Z M 119.226562 241.546875 C 126.398438 250.601562 135.230469 258.09375 145.234375 263.644531 C 144.632812 262.953125 144.019531 262.253906 143.402344 261.539062 C 136.226562 253.242188 127.570312 243.214844 119.226562 241.546875 " fill-opacity="1" fill-rule="nonzero"/><g clip-path="url(#730fd38793)"><path fill="#112140" d="M 278.527344 187.515625 C 278.527344 186.5 278.496094 185.507812 278.460938 184.5 C 278.476562 184.410156 278.492188 184.320312 278.492188 184.222656 C 278.492188 184.105469 278.46875 183.984375 278.445312 183.871094 C 276.507812 134.855469 236.566406 96.464844 187.515625 96.464844 C 138.828125 96.464844 98.886719 134.519531 96.589844 183.070312 C 96.503906 184.332031 96.464844 185.628906 96.464844 186.886719 L 96.464844 187.515625 C 96.464844 193.519531 97.035156 199.414062 98.144531 205.027344 C 99.132812 210.160156 100.605469 215.261719 102.515625 220.175781 C 103.601562 223.046875 104.914062 225.980469 106.410156 228.898438 C 106.414062 228.90625 106.417969 228.914062 106.421875 228.921875 C 107.980469 231.929688 109.390625 234.375 110.839844 236.566406 C 111.691406 237.945312 112.632812 239.328125 113.582031 240.597656 C 123.640625 254.582031 137.355469 265.382812 153.238281 271.828125 L 153.242188 271.824219 C 153.253906 271.828125 153.273438 271.839844 153.289062 271.847656 L 153.277344 271.871094 C 164.179688 276.285156 175.703125 278.527344 187.515625 278.527344 C 188.300781 278.527344 189.039062 278.527344 189.710938 278.488281 C 190.429688 278.488281 191.191406 278.480469 191.710938 278.410156 C 191.742188 278.410156 191.769531 278.410156 191.800781 278.40625 C 192.183594 278.40625 192.589844 278.402344 192.980469 278.363281 L 192.980469 278.367188 C 196.386719 278.148438 199.441406 277.804688 202.308594 277.324219 C 202.328125 277.320312 202.34375 277.316406 202.367188 277.3125 C 202.378906 277.308594 202.390625 277.308594 202.402344 277.304688 C 211.066406 275.890625 219.453125 273.210938 227.328125 269.339844 C 227.4375 269.292969 227.667969 269.207031 227.773438 269.144531 C 227.777344 269.140625 227.777344 269.140625 227.78125 269.140625 L 227.78125 269.136719 L 228.75 268.675781 C 228.90625 268.597656 229.15625 268.472656 229.429688 268.269531 C 237.105469 264.324219 244.210938 259.238281 250.542969 253.144531 L 250.539062 253.140625 C 250.695312 253.03125 250.847656 252.902344 250.886719 252.804688 C 260.398438 243.609375 267.632812 232.703125 272.394531 220.394531 L 272.390625 220.390625 C 272.4375 220.265625 272.480469 220.132812 272.503906 219.992188 C 276.496094 209.714844 278.527344 198.792969 278.527344 187.515625 Z M 230.222656 197.628906 C 230.007812 197.460938 229.78125 197.3125 229.554688 197.175781 C 229.960938 196.988281 230.421875 196.851562 230.910156 196.785156 C 233.398438 196.410156 235.757812 197.765625 237.230469 200.375 C 238.449219 203.675781 237.488281 207.605469 234.652344 210.925781 C 231.996094 214.023438 228.351562 215.757812 225.046875 215.621094 C 224.839844 213.964844 224.402344 212.339844 223.753906 210.78125 C 224.320312 210.8125 224.890625 210.8125 225.460938 210.738281 C 228.34375 210.359375 230.734375 208.722656 231.847656 206.367188 C 233.644531 202.601562 232.328125 199.261719 230.222656 197.628906 Z M 225.113281 219.542969 C 225.207031 219.542969 225.300781 219.554688 225.394531 219.554688 C 229.75 219.554688 234.332031 217.328125 237.632812 213.472656 C 237.84375 213.226562 238.046875 212.972656 238.246094 212.71875 C 238.046875 213.394531 237.820312 214.070312 237.546875 214.738281 C 235.371094 220.011719 231 224.289062 225.136719 226.957031 C 224.816406 226.054688 224.4375 225.175781 223.988281 224.324219 C 224.605469 222.78125 224.972656 221.164062 225.113281 219.542969 Z M 226.082031 230.832031 C 233.199219 227.785156 238.527344 222.648438 241.171875 216.234375 C 243.492188 210.609375 243.519531 204.527344 241.253906 199.59375 C 241.109375 199.261719 240.921875 198.925781 240.726562 198.585938 C 240.726562 198.585938 240.726562 198.585938 240.726562 198.582031 C 240.714844 198.566406 240.710938 198.546875 240.699219 198.527344 C 238.003906 193.671875 233.609375 192.429688 230.347656 192.902344 C 227.003906 193.382812 224.421875 195.585938 223.765625 198.5 C 223.582031 199.324219 223.941406 200.171875 224.660156 200.605469 C 225.382812 201.039062 226.296875 200.984375 226.941406 200.4375 C 227.027344 200.371094 227.398438 200.402344 227.816406 200.726562 C 228.617188 201.351562 229.222656 202.753906 228.304688 204.679688 C 227.769531 205.816406 226.484375 206.640625 224.957031 206.84375 C 223.058594 207.105469 221.246094 206.367188 219.929688 204.804688 C 219.644531 204.488281 219.40625 204.078125 219.195312 203.742188 C 217.664062 201.003906 217.339844 197.585938 218.328125 194.59375 C 219.433594 191.25 222.117188 188.542969 226.105469 186.75 C 235.304688 182.574219 246.511719 186.375 251.089844 195.242188 C 254.308594 201.5 258.964844 222.398438 239.703125 237.070312 C 235.191406 235.121094 230.109375 235.011719 225.886719 236.589844 C 226.261719 234.722656 226.335938 232.789062 226.082031 230.832031 Z M 220.027344 240.621094 C 219.753906 240.9375 219.507812 241.292969 219.242188 241.6875 C 216.828125 244.6875 213.257812 246.472656 209.683594 246.472656 L 209.359375 246.472656 C 203.628906 246.035156 198.230469 244.511719 193.339844 242.460938 C 194.019531 242.511719 194.703125 242.542969 195.382812 242.542969 C 198.628906 242.542969 201.855469 241.941406 204.949219 240.574219 C 208.78125 238.867188 211.769531 236.347656 213.855469 233.078125 C 218.332031 225.957031 217.160156 216.585938 211.179688 211.757812 C 208.171875 209.339844 204.460938 208.441406 201.050781 209.210938 C 199.585938 205.601562 196.140625 203.816406 193.109375 203.691406 C 189.480469 203.449219 186.410156 205.707031 185.601562 209.199219 C 185.382812 210.167969 185.859375 211.113281 186.792969 211.449219 C 186.863281 211.535156 187.011719 212.007812 186.832031 212.746094 C 186.652344 213.503906 186.210938 214.152344 185.726562 214.363281 C 184.644531 214.855469 183.554688 214.796875 182.648438 214.214844 C 181.441406 213.429688 180.753906 211.808594 180.769531 209.777344 C 180.800781 206.390625 182.421875 203.421875 185.34375 201.402344 C 190.191406 198.015625 198.210938 197.742188 201.945312 202.773438 C 202.445312 203.4375 203.3125 203.734375 204.097656 203.472656 C 208.496094 202.125 213.429688 203.664062 217.003906 207.5 C 219.609375 210.242188 221.15625 213.863281 221.253906 217.46875 C 221.363281 219.554688 220.9375 221.671875 220.027344 223.589844 C 219.753906 224.183594 219.785156 224.867188 220.113281 225.433594 C 220.96875 226.875 221.59375 228.429688 221.960938 230.035156 C 222.804688 233.777344 222.117188 237.535156 220.027344 240.621094 Z M 224.464844 256.046875 C 227.359375 256.140625 229.824219 254.707031 230.914062 252.214844 C 231.054688 251.894531 231.15625 251.574219 231.242188 251.25 C 231.480469 252.519531 231.371094 254.035156 230.703125 255.398438 C 229.074219 258.742188 224.914062 260.105469 219.019531 259.242188 C 211.203125 258.121094 202.328125 253.050781 193.957031 246.933594 C 198.363281 248.59375 203.132812 249.816406 208.160156 250.292969 C 208.1875 250.300781 208.210938 250.316406 208.242188 250.320312 C 208.507812 250.371094 208.808594 250.386719 209.089844 250.390625 C 209.09375 250.390625 209.09375 250.394531 209.101562 250.394531 C 209.144531 250.394531 209.1875 250.394531 209.234375 250.394531 C 209.238281 250.394531 209.242188 250.398438 209.246094 250.398438 L 209.601562 250.398438 C 210.621094 250.46875 211.640625 250.507812 212.664062 250.507812 C 214.363281 250.507812 216.089844 250.40625 217.859375 250.199219 C 218.742188 253.519531 221.285156 255.871094 224.464844 256.046875 Z M 166.871094 212.464844 C 167.386719 213.074219 167.90625 213.695312 168.441406 214.339844 C 173.589844 220.527344 179.429688 227.539062 187.859375 231.066406 C 194.089844 233.65625 200.246094 231.863281 203.578125 228.9375 C 206.238281 226.605469 207.351562 223.453125 206.550781 220.507812 C 206.324219 219.65625 205.5625 219.070312 204.679688 219.054688 C 203.796875 219.140625 203.027344 219.621094 202.78125 220.457031 C 202.359375 221.871094 201.117188 222.449219 200.148438 222.320312 C 198.707031 222.207031 197.707031 220.96875 197.464844 219.003906 C 197.164062 216.640625 198.328125 214.574219 200.546875 213.496094 C 202.539062 212.5625 205.746094 212.421875 208.71875 214.808594 C 213.175781 218.414062 213.96875 225.523438 210.535156 230.988281 C 208.878906 233.582031 206.460938 235.601562 203.355469 236.992188 C 192.441406 241.8125 179.257812 235.214844 170.550781 227.402344 C 170.542969 227.398438 170.539062 227.390625 170.53125 227.386719 C 170.53125 227.382812 170.53125 227.382812 170.53125 227.378906 C 170.523438 227.375 170.515625 227.367188 170.507812 227.359375 C 170.507812 227.359375 170.503906 227.359375 170.503906 227.359375 C 169.945312 226.839844 169.421875 226.3125 168.832031 225.722656 C 168.832031 225.722656 168.828125 225.71875 168.824219 225.714844 C 168.816406 225.707031 168.800781 225.695312 168.789062 225.683594 C 168.058594 224.980469 167.347656 224.226562 166.636719 223.457031 C 167.910156 220.257812 167.96875 216.46875 166.871094 212.464844 Z M 250.722656 183.792969 C 247.507812 178.199219 243.40625 174.597656 239.660156 172.304688 C 244.832031 172.390625 251.4375 174.101562 254.695312 178.628906 C 252.871094 179.984375 251.5 181.78125 250.722656 183.792969 Z M 233.03125 169.234375 C 226.496094 167.058594 219.449219 167.140625 214.90625 169.484375 C 212.78125 170.578125 211.390625 172.101562 210.890625 173.878906 C 210.71875 174.496094 210.855469 175.164062 211.261719 175.652344 C 211.574219 176.039062 212.015625 176.28125 212.496094 176.355469 C 212.800781 176.742188 213.289062 177.925781 213.109375 179.351562 C 212.9375 180.722656 212.207031 181.703125 210.949219 182.273438 C 208.855469 183.230469 207.238281 182.464844 206.253906 181.65625 C 204.265625 180.035156 202.71875 176.355469 203.753906 171.78125 C 205.242188 165.085938 210.058594 161.605469 213.839844 159.867188 C 220.3125 156.886719 228.765625 156.71875 233.949219 159.472656 C 234.394531 159.714844 234.921875 159.765625 235.414062 159.625 C 243.484375 157.269531 252.953125 158.785156 260.714844 163.664062 C 266.371094 167.226562 270.550781 172.257812 272.863281 178.128906 C 268.476562 175.671875 263.273438 175.460938 260.128906 176.1875 C 259.429688 176.34375 258.78125 176.535156 258.160156 176.761719 C 252.730469 168.699219 239.5 167.042969 233.03125 169.234375 Z M 187.515625 100.386719 C 229.582031 100.386719 264.621094 129.902344 272.78125 169.789062 C 270.183594 166.085938 266.828125 162.882812 262.804688 160.34375 C 254.351562 155.027344 244.046875 153.289062 235.070312 155.652344 C 228.800781 152.695312 219.539062 152.925781 212.199219 156.300781 C 207.617188 158.414062 201.765625 162.664062 199.921875 170.921875 C 198.695312 176.382812 200.203125 181.789062 203.773438 184.699219 C 206.339844 186.792969 209.542969 187.210938 212.566406 185.851562 C 216.65625 184.003906 217.636719 179.839844 216.796875 176.535156 C 216.511719 175.417969 216.046875 174.480469 215.46875 173.792969 C 215.792969 173.5 216.214844 173.222656 216.703125 172.96875 C 219.804688 171.371094 225.855469 170.8125 232.410156 173.164062 C 236.292969 174.535156 242.363281 177.738281 246.808594 184.9375 C 240.351562 180.757812 231.882812 179.8125 224.488281 183.171875 C 218.160156 186.023438 215.617188 190.285156 214.605469 193.363281 C 213.839844 195.667969 213.679688 198.164062 214.066406 200.582031 C 210.9375 199.136719 207.519531 198.683594 204.234375 199.390625 C 199.140625 193.84375 190.234375 193.898438 184.113281 197.539062 C 181.464844 196.113281 172.8125 190.945312 156.761719 176.824219 C 156.703125 176.773438 156.644531 176.734375 156.582031 176.695312 C 152.253906 172.886719 147.53125 168.546875 142.550781 163.777344 C 138.589844 159.964844 121.863281 160.945312 118.574219 163.632812 C 115.429688 166.167969 112.351562 168.917969 109.371094 171.585938 C 106.429688 174.210938 103.605469 176.730469 100.816406 178.984375 C 105.09375 134.578125 142.371094 100.386719 187.515625 100.386719 Z M 152.289062 178.132812 C 151.800781 178.726562 151.523438 179.347656 151.371094 179.878906 C 151.253906 180.296875 151.207031 180.746094 151.191406 181.199219 C 149.046875 179.8125 146.726562 178.859375 144.484375 178.96875 C 143.035156 179.050781 141.75 179.585938 140.675781 180.519531 C 137.90625 176.664062 135.105469 174.78125 132.15625 174.78125 L 132.09375 174.78125 C 129.566406 174.804688 127.203125 176.183594 124.941406 178.988281 C 124.4375 178.476562 123.824219 178.074219 123.117188 177.820312 C 120.039062 176.710938 115.863281 178.289062 111.410156 182.160156 C 110.644531 181.351562 109.640625 180.8125 108.4375 180.601562 C 107.285156 180.394531 106 180.527344 104.703125 180.867188 C 107.097656 178.875 109.5 176.730469 111.984375 174.507812 C 114.929688 171.875 117.972656 169.160156 121.046875 166.675781 C 123.179688 164.933594 137.628906 164.488281 139.832031 166.609375 C 144.21875 170.804688 148.390625 174.652344 152.289062 178.132812 Z M 100.390625 187.640625 C 101.875 186.070312 105.65625 184.109375 107.757812 184.464844 C 108.085938 184.519531 108.367188 184.632812 108.597656 184.878906 C 107.058594 186.492188 105.511719 188.363281 103.976562 190.484375 C 103.339844 191.363281 103.539062 192.589844 104.417969 193.222656 C 104.769531 193.476562 105.167969 193.59375 105.570312 193.59375 C 106.175781 193.59375 106.773438 193.3125 107.160156 192.78125 C 108.894531 190.378906 110.644531 188.3125 112.363281 186.632812 C 116.695312 182.320312 120.28125 180.960938 121.769531 181.503906 C 121.957031 181.574219 122.523438 181.78125 122.636719 183.09375 C 122.710938 183.941406 123.320312 184.640625 124.148438 184.839844 C 124.992188 185.042969 125.832031 184.671875 126.273438 183.941406 C 128.332031 180.53125 130.359375 178.71875 132.128906 178.703125 L 132.152344 178.703125 C 134 178.703125 136.199219 180.648438 138.511719 184.332031 C 139.296875 185.566406 140.050781 186.925781 140.757812 188.371094 C 141.234375 189.347656 142.417969 189.75 143.382812 189.277344 C 144.359375 188.804688 144.757812 187.632812 144.28125 186.660156 C 143.820312 185.707031 143.332031 184.800781 142.832031 183.925781 C 143.351562 183.269531 143.949219 182.929688 144.710938 182.886719 C 147.238281 182.722656 151.222656 185.472656 155.160156 190.011719 C 155.160156 190.015625 155.164062 190.019531 155.167969 190.019531 C 155.171875 190.027344 155.175781 190.03125 155.179688 190.039062 C 155.507812 190.40625 155.835938 190.800781 156.164062 191.203125 L 156.191406 191.230469 C 156.570312 191.699219 157.125 191.941406 157.683594 191.941406 C 158.125 191.941406 158.570312 191.789062 158.9375 191.484375 C 159.773438 190.796875 159.882812 189.546875 159.195312 188.710938 C 158.828125 188.269531 158.464844 187.824219 158.1875 187.523438 C 155.53125 184.117188 154.886719 181.851562 155.144531 180.949219 C 155.160156 180.894531 155.1875 180.808594 155.25 180.710938 C 168.75 192.496094 176.929688 197.914062 180.777344 200.167969 C 178.265625 202.757812 176.878906 206.0625 176.847656 209.742188 C 176.816406 213.140625 178.15625 215.972656 180.507812 217.503906 C 182.539062 218.824219 185.035156 218.984375 187.320312 217.949219 C 189.726562 216.894531 190.910156 214.089844 190.835938 211.859375 C 190.796875 210.730469 190.453125 209.746094 189.871094 209.003906 C 190.738281 207.648438 192.351562 207.558594 192.949219 207.613281 C 194.710938 207.683594 196.730469 208.757812 197.496094 210.75 C 194.613281 212.734375 193.128906 215.957031 193.570312 219.488281 C 194.144531 224.125 197.292969 226.019531 199.820312 226.230469 C 200.109375 226.257812 200.394531 226.265625 200.675781 226.253906 C 198.191406 228.207031 193.835938 229.304688 189.367188 227.445312 C 181.828125 224.292969 176.320312 217.667969 171.457031 211.828125 C 167.859375 207.507812 164.742188 203.773438 161.25 201.867188 C 153.03125 192.445312 137.554688 188.375 122.640625 191.292969 C 123.28125 190.324219 123.671875 189.644531 123.707031 189.582031 C 124.242188 188.636719 123.914062 187.445312 122.96875 186.90625 C 122.027344 186.375 120.828125 186.699219 120.296875 187.644531 C 120.277344 187.671875 118.582031 190.632812 116.363281 192.957031 C 110.957031 194.785156 105.953125 197.492188 101.4375 201.019531 C 100.753906 196.679688 100.398438 192.199219 100.390625 187.640625 Z M 105.09375 215.785156 C 103.917969 212.382812 102.972656 208.914062 102.246094 205.421875 C 106.945312 201.421875 112.253906 198.414062 118.058594 196.515625 C 133.105469 191.601562 150.535156 195.164062 158.589844 204.78125 C 158.59375 204.789062 158.601562 204.792969 158.609375 204.800781 C 158.613281 204.804688 158.617188 204.8125 158.617188 204.816406 C 159.3125 205.605469 159.949219 206.503906 160.515625 207.484375 C 165.332031 215.789062 163.570312 221.023438 162.59375 222.890625 C 162.578125 222.921875 162.574219 222.953125 162.558594 222.984375 C 161.953125 224.113281 161.085938 225.03125 160.121094 225.554688 C 159.410156 225.933594 158.296875 226.292969 157.042969 225.816406 C 154.675781 224.886719 154.445312 222.707031 154.683594 221.566406 C 154.722656 221.40625 155.109375 220.078125 156.058594 219.992188 C 156.082031 219.992188 156.097656 219.992188 156.117188 219.988281 C 156.128906 219.992188 156.140625 219.992188 156.152344 219.992188 C 156.160156 219.992188 156.164062 219.992188 156.171875 219.992188 C 156.238281 219.992188 156.300781 219.984375 156.371094 219.976562 C 156.433594 219.96875 156.5 219.96875 156.5625 219.957031 C 157.628906 219.738281 158.308594 218.699219 158.09375 217.640625 C 156.738281 211.023438 151.460938 206.066406 143.621094 204.042969 C 133 201.28125 116.851562 203.949219 105.09375 215.785156 Z M 145.757812 220.316406 C 142.292969 217.234375 137.96875 215.285156 133.296875 214.542969 C 139.917969 213.421875 146.46875 214.527344 152.253906 217.863281 C 151.585938 218.628906 151.089844 219.601562 150.84375 220.765625 C 150.207031 223.808594 151.429688 227.828125 155.640625 229.480469 C 156.488281 229.800781 157.371094 229.957031 158.265625 229.957031 C 158.664062 229.957031 159.0625 229.917969 159.457031 229.851562 C 159.75 232.382812 159.609375 234.796875 159.03125 236.910156 C 158.257812 239.605469 156.867188 241.648438 154.914062 242.96875 C 153.664062 243.816406 152.203125 244.339844 150.542969 244.53125 C 147.90625 244.878906 145.492188 243.734375 144.324219 241.601562 C 143.867188 240.816406 143.421875 239.566406 143.917969 238.058594 C 144.527344 236.171875 145.914062 236.074219 146.328125 236.132812 C 146.945312 236.167969 147.722656 236.5 147.890625 237.332031 C 148.074219 238.238281 148.863281 238.894531 149.789062 238.902344 C 150.675781 238.722656 151.523438 238.28125 151.726562 237.382812 C 153.136719 231.273438 150.90625 224.894531 145.757812 220.316406 Z M 106.628906 219.90625 C 116.945312 208.550781 132.417969 205.203125 142.640625 207.839844 C 146.644531 208.875 149.753906 210.722656 151.785156 213.222656 C 141.558594 208.480469 129.34375 209.421875 118.578125 216.128906 C 118.570312 216.132812 118.5625 216.132812 118.554688 216.136719 C 118.546875 216.140625 118.542969 216.148438 118.535156 216.152344 C 118.519531 216.160156 118.507812 216.167969 118.492188 216.175781 C 118.488281 216.175781 118.488281 216.179688 118.484375 216.179688 C 118.464844 216.195312 118.4375 216.203125 118.414062 216.21875 C 114.855469 218.453125 111.574219 221.226562 108.613281 224.472656 C 107.890625 222.945312 107.226562 221.421875 106.628906 219.90625 Z M 112.714844 232.171875 C 111.992188 230.96875 111.261719 229.671875 110.503906 228.25 C 113.449219 224.8125 116.761719 221.910156 120.375 219.625 C 130.253906 216.152344 138.609375 219.207031 143.148438 223.246094 C 146.121094 225.890625 147.851562 229.136719 148.171875 232.535156 C 147.664062 232.355469 147.117188 232.25 146.550781 232.214844 C 143.714844 232.046875 141.152344 233.867188 140.183594 236.839844 C 139.683594 238.378906 139.660156 239.984375 140.070312 241.492188 C 139.125 241.722656 138.265625 241.671875 137.546875 241.34375 C 137.515625 241.324219 137.484375 241.3125 137.457031 241.296875 C 136.195312 240.648438 135.390625 239.144531 135.5 237.597656 C 135.570312 236.703125 136.007812 235.085938 138.246094 234.378906 C 138.804688 234.203125 139.257812 233.789062 139.476562 233.242188 C 139.695312 232.699219 139.660156 232.085938 139.378906 231.570312 C 137.496094 228.121094 133.628906 226 128.765625 225.753906 C 123.785156 225.507812 117.214844 227.429688 112.714844 232.171875 Z M 114.898438 235.617188 C 118.5 231.234375 124.21875 229.449219 128.570312 229.675781 C 131.097656 229.800781 133.207031 230.566406 134.636719 231.835938 C 132.851562 233.117188 131.75 235.042969 131.585938 237.316406 C 131.558594 237.726562 131.5625 238.128906 131.59375 238.53125 C 126.128906 236.46875 120.976562 236.035156 115.984375 237.210938 C 115.613281 236.691406 115.253906 236.160156 114.898438 235.617188 Z M 119.226562 241.546875 C 127.570312 243.214844 136.226562 253.242188 143.402344 261.539062 C 144.019531 262.253906 144.632812 262.953125 145.234375 263.644531 C 135.230469 258.09375 126.398438 250.601562 119.226562 241.546875 Z M 155.066406 268.355469 C 152.511719 266.058594 149.527344 262.621094 146.367188 258.964844 C 141.164062 252.953125 135.210938 246.074219 128.863281 241.730469 C 131.070312 242.445312 133.351562 243.46875 135.710938 244.808594 C 141.230469 247.929688 147.300781 252.761719 154.808594 260.007812 C 160.824219 265.824219 166.257812 270.125 171.453125 273.117188 C 165.867188 272.074219 160.390625 270.488281 155.066406 268.355469 Z M 191.640625 274.496094 L 191.640625 274.488281 C 191.054688 274.523438 190.425781 274.554688 189.75 274.5625 L 189.738281 274.5625 C 179.617188 274.425781 169.988281 269.226562 157.535156 257.1875 C 153.941406 253.71875 150.652344 250.785156 147.585938 248.304688 C 148.242188 248.429688 148.917969 248.515625 149.609375 248.515625 C 150.074219 248.515625 150.542969 248.484375 151.015625 248.425781 C 152.757812 248.222656 154.367188 247.734375 155.832031 246.972656 C 156.777344 247.769531 158.007812 248.851562 159.480469 250.152344 C 164.917969 254.933594 174.011719 262.933594 183.132812 268.976562 L 183.527344 269.242188 C 186.40625 271.160156 189.210938 273.03125 192.019531 274.488281 C 191.90625 274.488281 191.777344 274.492188 191.640625 274.496094 Z M 201.847656 273.417969 C 196.765625 273.355469 191.636719 269.933594 185.703125 265.976562 L 185.308594 265.707031 C 176.398438 259.8125 167.777344 252.226562 162.074219 247.207031 C 160.929688 246.195312 159.921875 245.3125 159.070312 244.582031 C 160.179688 243.457031 161.105469 242.113281 161.828125 240.582031 C 168.707031 245.871094 179.996094 254.351562 190.121094 261.058594 C 198.476562 266.59375 205.824219 269.871094 212.464844 270.957031 C 208.988281 271.996094 205.445312 272.828125 201.847656 273.417969 Z M 227.394531 264.90625 C 227.386719 264.914062 227.378906 264.917969 227.367188 264.921875 C 227.351562 264.929688 227.335938 264.941406 227.324219 264.949219 C 227.25 264.988281 227.175781 265.027344 227.105469 265.066406 C 226.753906 265.261719 226.398438 265.441406 226.046875 265.617188 C 225.933594 265.667969 225.808594 265.726562 225.785156 265.738281 C 216.832031 269.523438 206.1875 267.003906 192.292969 257.789062 C 181.703125 250.773438 169.804688 241.78125 163.121094 236.628906 C 163.636719 234.023438 163.660156 231.160156 163.195312 228.222656 C 163.675781 227.851562 164.113281 227.414062 164.53125 226.949219 C 165.011719 227.457031 165.503906 227.960938 165.996094 228.4375 C 166.0625 228.511719 166.132812 228.585938 166.207031 228.644531 C 166.738281 229.175781 167.269531 229.707031 167.839844 230.234375 C 167.84375 230.242188 167.851562 230.25 167.859375 230.257812 C 169.886719 232.144531 171.824219 233.792969 173.789062 235.3125 C 173.84375 235.355469 173.882812 235.394531 173.945312 235.441406 C 193.027344 252.707031 207.175781 261.507812 218.460938 263.128906 C 219.832031 263.328125 221.09375 263.417969 222.25 263.414062 C 228.105469 263.414062 231.285156 261.109375 232.957031 259.074219 C 232.003906 261.234375 230.261719 263.375 227.394531 264.90625 Z M 237.140625 259.054688 C 237.738281 257.132812 237.910156 255.246094 237.765625 253.628906 C 237.414062 249.683594 235.316406 246.714844 232.234375 245.683594 C 232.210938 245.675781 232.1875 245.664062 232.167969 245.65625 C 232.167969 245.65625 232.164062 245.65625 232.164062 245.65625 C 231.003906 245.234375 229.648438 245.109375 228.234375 245.316406 C 227.496094 245.425781 226.886719 245.933594 226.648438 246.636719 C 226.417969 247.34375 226.601562 248.125 227.125 248.648438 C 227.636719 249.164062 227.597656 250.015625 227.324219 250.632812 C 227.113281 251.105469 226.519531 252.140625 224.65625 252.128906 C 222.910156 252.035156 221.5625 250.261719 221.445312 247.863281 C 221.351562 246.554688 221.699219 245.179688 222.402344 244.023438 C 222.703125 243.660156 222.960938 243.3125 223.15625 242.980469 L 223.566406 242.542969 C 227.160156 239.023438 233.808594 238.398438 239.03125 241.082031 C 239.085938 241.113281 239.144531 241.128906 239.199219 241.148438 C 241.902344 242.5625 245.332031 245.414062 246.992188 251.089844 C 243.890625 254 240.601562 256.65625 237.140625 259.054688 Z M 250.042969 248.003906 C 248.601562 244.359375 246.328125 241.339844 243.375 239.175781 C 260.636719 225.09375 259.042969 206.203125 256.007812 196.953125 C 256.035156 196.964844 256.066406 196.976562 256.097656 196.988281 C 259.449219 198.523438 261.960938 202.660156 262.992188 208.34375 C 264.910156 218.972656 261.625 234.929688 250.042969 248.003906 Z M 268.71875 218.941406 C 268.703125 218.992188 268.695312 219.042969 268.683594 219.09375 C 267.9375 221.019531 267.121094 222.90625 266.25 224.753906 C 267.613281 218.488281 267.738281 212.554688 266.847656 207.644531 C 265.96875 202.785156 264.160156 198.875 261.617188 196.226562 C 262.59375 195.6875 263.457031 194.90625 264.09375 193.921875 C 264.988281 192.554688 265.28125 191.050781 264.984375 189.625 C 265.367188 189.773438 265.695312 189.976562 265.90625 190.121094 C 269.109375 192.347656 273.832031 201.238281 268.71875 218.941406 Z M 268.140625 186.898438 C 265.683594 185.199219 262.90625 185.066406 260.882812 186.570312 C 260.433594 186.902344 260.144531 187.40625 260.097656 187.964844 C 260.046875 188.519531 260.234375 189.074219 260.613281 189.480469 C 261.277344 190.1875 261.34375 190.964844 260.808594 191.78125 C 260.207031 192.71875 258.894531 193.464844 257.625 193.035156 C 255.441406 192.285156 254.089844 190.511719 253.921875 188.160156 C 253.714844 185.277344 255.40625 182.472656 258.277344 181 C 259.074219 180.570312 259.960938 180.246094 260.996094 180.011719 C 264.625 179.171875 271.296875 180.167969 274.546875 184.785156 C 274.578125 185.699219 274.605469 186.59375 274.605469 187.515625 C 274.605469 190.75 274.410156 193.945312 274.0625 197.109375 C 272.953125 192.21875 270.789062 188.730469 268.140625 186.898438 Z M 162.933594 196.875 C 163.292969 197.148438 163.714844 197.285156 164.136719 197.285156 C 164.71875 197.285156 165.300781 197.023438 165.6875 196.519531 C 166.347656 195.667969 166.191406 194.433594 165.335938 193.769531 C 164.976562 193.496094 164.769531 193.289062 164.726562 193.257812 C 163.972656 192.507812 162.738281 192.507812 161.976562 193.265625 C 161.210938 194.027344 161.207031 195.269531 161.960938 196.039062 C 161.960938 196.039062 162.304688 196.386719 162.933594 196.875 " fill-opacity="1" fill-rule="nonzero"/></g><g fill="#000000" fill-opacity="1"><g transform="translate(118.080123, 110.727642)"><g><path d="M 0.71875 -19.71875 C 1.832031 -20.332031 2.972656 -20.695312 4.140625 -20.8125 C 5.304688 -20.9375 6.414062 -20.851562 7.46875 -20.5625 C 8.519531 -20.28125 9.488281 -19.785156 10.375 -19.078125 C 11.257812 -18.367188 11.988281 -17.5 12.5625 -16.46875 L 12.578125 -16.421875 C 13.148438 -15.378906 13.488281 -14.296875 13.59375 -13.171875 C 13.707031 -12.054688 13.609375 -10.960938 13.296875 -9.890625 C 12.992188 -8.828125 12.476562 -7.832031 11.75 -6.90625 C 11.019531 -5.988281 10.09375 -5.222656 8.96875 -4.609375 C 7.84375 -3.992188 6.695312 -3.625 5.53125 -3.5 C 4.375 -3.375 3.265625 -3.457031 2.203125 -3.75 C 1.148438 -4.039062 0.1875 -4.535156 -0.6875 -5.234375 C -1.570312 -5.941406 -2.300781 -6.8125 -2.875 -7.84375 L -2.90625 -7.890625 C -3.476562 -8.929688 -3.820312 -10.015625 -3.9375 -11.140625 C -4.050781 -12.265625 -3.953125 -13.351562 -3.640625 -14.40625 C -3.328125 -15.46875 -2.800781 -16.460938 -2.0625 -17.390625 C -1.332031 -18.316406 -0.40625 -19.09375 0.71875 -19.71875 Z M 7.375 -7.59375 C 8.019531 -7.945312 8.546875 -8.390625 8.953125 -8.921875 C 9.367188 -9.453125 9.648438 -10.03125 9.796875 -10.65625 C 9.953125 -11.289062 9.984375 -11.9375 9.890625 -12.59375 C 9.804688 -13.257812 9.59375 -13.898438 9.25 -14.515625 L 9.21875 -14.5625 C 8.875 -15.1875 8.441406 -15.71875 7.921875 -16.15625 C 7.410156 -16.59375 6.84375 -16.910156 6.21875 -17.109375 C 5.59375 -17.316406 4.941406 -17.390625 4.265625 -17.328125 C 3.597656 -17.273438 2.941406 -17.070312 2.296875 -16.71875 C 1.660156 -16.363281 1.132812 -15.921875 0.71875 -15.390625 C 0.300781 -14.859375 0.0195312 -14.28125 -0.125 -13.65625 C -0.269531 -13.03125 -0.300781 -12.382812 -0.21875 -11.71875 C -0.132812 -11.050781 0.078125 -10.40625 0.421875 -9.78125 L 0.4375 -9.734375 C 0.78125 -9.109375 1.210938 -8.578125 1.734375 -8.140625 C 2.265625 -7.710938 2.835938 -7.394531 3.453125 -7.1875 C 4.078125 -6.988281 4.722656 -6.914062 5.390625 -6.96875 C 6.066406 -7.03125 6.726562 -7.238281 7.375 -7.59375 Z M 7.375 -7.59375 "/></g></g></g><g fill="#000000" fill-opacity="1"><g transform="translate(138.896502, 99.76173)"><g><path d="M -2.9375 -14.796875 C -3.101562 -15.265625 -3.078125 -15.722656 -2.859375 -16.171875 C -2.640625 -16.628906 -2.285156 -16.941406 -1.796875 -17.109375 C -1.316406 -17.273438 -0.847656 -17.242188 -0.390625 -17.015625 C 0.0546875 -16.796875 0.363281 -16.453125 0.53125 -15.984375 L 2.328125 -10.6875 L 6.546875 -19.21875 C 6.679688 -19.488281 6.84375 -19.722656 7.03125 -19.921875 C 7.226562 -20.128906 7.476562 -20.285156 7.78125 -20.390625 C 8.25 -20.546875 8.6875 -20.519531 9.09375 -20.3125 C 9.5 -20.101562 9.773438 -19.78125 9.921875 -19.34375 C 10.015625 -19.070312 10.039062 -18.8125 10 -18.5625 C 9.957031 -18.3125 9.867188 -18.066406 9.734375 -17.828125 L 6.734375 -12.171875 L 13.640625 -7.75 C 13.816406 -7.625 13.984375 -7.476562 14.140625 -7.3125 C 14.304688 -7.15625 14.429688 -6.945312 14.515625 -6.6875 C 14.679688 -6.207031 14.65625 -5.75 14.4375 -5.3125 C 14.21875 -4.875 13.851562 -4.570312 13.34375 -4.40625 C 13 -4.28125 12.691406 -4.253906 12.421875 -4.328125 C 12.148438 -4.410156 11.875 -4.546875 11.59375 -4.734375 L 5.078125 -9.09375 L 3.734375 -6.578125 L 4.8125 -3.421875 C 4.976562 -2.941406 4.945312 -2.472656 4.71875 -2.015625 C 4.5 -1.566406 4.148438 -1.257812 3.671875 -1.09375 C 3.179688 -0.925781 2.710938 -0.953125 2.265625 -1.171875 C 1.816406 -1.398438 1.507812 -1.753906 1.34375 -2.234375 Z M -2.9375 -14.796875 "/></g></g></g><g fill="#000000" fill-opacity="1"><g transform="translate(158.554295, 93.601538)"><g><path d="M -0.875 -15.078125 C -0.96875 -15.566406 -0.875 -16.019531 -0.59375 -16.4375 C -0.3125 -16.863281 0.078125 -17.128906 0.578125 -17.234375 C 1.066406 -17.335938 1.523438 -17.25 1.953125 -16.96875 C 2.378906 -16.6875 2.640625 -16.300781 2.734375 -15.8125 L 5.375 -2.8125 C 5.476562 -2.3125 5.390625 -1.851562 5.109375 -1.4375 C 4.828125 -1.019531 4.441406 -0.757812 3.953125 -0.65625 C 3.453125 -0.550781 2.988281 -0.632812 2.5625 -0.90625 C 2.132812 -1.1875 1.867188 -1.578125 1.765625 -2.078125 Z M -0.875 -15.078125 "/></g></g></g><g fill="#000000" fill-opacity="1"><g transform="translate(169.948176, 91.165484)"><g><path d="M 1.890625 -1.78125 L 1.03125 -15 C 1 -15.5 1.144531 -15.941406 1.46875 -16.328125 C 1.800781 -16.710938 2.21875 -16.921875 2.71875 -16.953125 L 3.09375 -16.96875 C 3.539062 -17 3.914062 -16.925781 4.21875 -16.75 C 4.519531 -16.570312 4.804688 -16.328125 5.078125 -16.015625 L 12.71875 -7.234375 L 12.171875 -15.796875 C 12.140625 -16.304688 12.285156 -16.742188 12.609375 -17.109375 C 12.929688 -17.484375 13.34375 -17.6875 13.84375 -17.71875 C 14.351562 -17.75 14.796875 -17.601562 15.171875 -17.28125 C 15.546875 -16.957031 15.75 -16.539062 15.78125 -16.03125 L 16.640625 -2.828125 C 16.671875 -2.316406 16.515625 -1.867188 16.171875 -1.484375 C 15.835938 -1.109375 15.421875 -0.90625 14.921875 -0.875 L 14.796875 -0.875 C 14.359375 -0.84375 13.988281 -0.914062 13.6875 -1.09375 C 13.394531 -1.269531 13.109375 -1.507812 12.828125 -1.8125 L 4.90625 -10.921875 L 5.484375 -2.015625 C 5.515625 -1.515625 5.367188 -1.078125 5.046875 -0.703125 C 4.722656 -0.335938 4.304688 -0.140625 3.796875 -0.109375 C 3.304688 -0.078125 2.875 -0.222656 2.5 -0.546875 C 2.125 -0.867188 1.921875 -1.28125 1.890625 -1.78125 Z M 1.890625 -1.78125 "/></g></g></g><g fill="#000000" fill-opacity="1"><g transform="translate(192.035593, 90.044282)"><g><path d="M 1.3125 -2.234375 L 8.5 -14.609375 C 8.75 -15.046875 9.066406 -15.367188 9.453125 -15.578125 C 9.835938 -15.796875 10.28125 -15.878906 10.78125 -15.828125 L 11 -15.796875 C 11.5 -15.742188 11.910156 -15.570312 12.234375 -15.28125 C 12.554688 -14.988281 12.796875 -14.601562 12.953125 -14.125 L 17.296875 -0.484375 C 17.378906 -0.117188 17.410156 0.132812 17.390625 0.28125 C 17.335938 0.757812 17.128906 1.148438 16.765625 1.453125 C 16.398438 1.753906 15.972656 1.878906 15.484375 1.828125 C 15.054688 1.785156 14.710938 1.632812 14.453125 1.375 C 14.203125 1.113281 14.007812 0.785156 13.875 0.390625 L 13.046875 -2.34375 L 5.765625 -3.140625 L 4.3125 -0.546875 C 4.113281 -0.191406 3.859375 0.0664062 3.546875 0.234375 C 3.234375 0.398438 2.890625 0.460938 2.515625 0.421875 C 2.035156 0.367188 1.65625 0.160156 1.375 -0.203125 C 1.09375 -0.578125 0.976562 -0.992188 1.03125 -1.453125 C 1.039062 -1.585938 1.070312 -1.71875 1.125 -1.84375 C 1.175781 -1.96875 1.238281 -2.097656 1.3125 -2.234375 Z M 7.453125 -6.1875 L 12.046875 -5.6875 L 10.34375 -11.390625 Z M 7.453125 -6.1875 "/></g></g></g><g fill="#000000" fill-opacity="1"><g transform="translate(213.301343, 92.288102)"><g><path d="M 5.359375 -14.03125 C 5.503906 -14.507812 5.800781 -14.859375 6.25 -15.078125 C 6.707031 -15.296875 7.179688 -15.328125 7.671875 -15.171875 C 8.078125 -15.035156 8.394531 -14.800781 8.625 -14.46875 C 8.851562 -14.132812 8.96875 -13.769531 8.96875 -13.375 L 9 -2.671875 L 15.25 -11.265625 C 15.519531 -11.617188 15.847656 -11.878906 16.234375 -12.046875 C 16.617188 -12.210938 17.03125 -12.222656 17.46875 -12.078125 L 17.734375 -12 C 18.171875 -11.851562 18.5 -11.609375 18.71875 -11.265625 C 18.945312 -10.921875 19.0625 -10.515625 19.0625 -10.046875 L 19.15625 0.578125 L 25.40625 -8.109375 C 25.625 -8.421875 25.914062 -8.648438 26.28125 -8.796875 C 26.644531 -8.953125 27.039062 -8.960938 27.46875 -8.828125 C 27.945312 -8.671875 28.300781 -8.378906 28.53125 -7.953125 C 28.769531 -7.535156 28.8125 -7.082031 28.65625 -6.59375 C 28.625 -6.5 28.570312 -6.394531 28.5 -6.28125 C 28.425781 -6.164062 28.359375 -6.0625 28.296875 -5.96875 L 19.890625 5.078125 C 19.578125 5.453125 19.222656 5.71875 18.828125 5.875 C 18.441406 6.039062 18.035156 6.050781 17.609375 5.90625 L 17.265625 5.796875 C 16.835938 5.660156 16.507812 5.421875 16.28125 5.078125 C 16.0625 4.742188 15.941406 4.320312 15.921875 3.8125 L 15.703125 -6.265625 L 9.671875 1.8125 C 9.359375 2.207031 9.015625 2.476562 8.640625 2.625 C 8.265625 2.78125 7.863281 2.789062 7.4375 2.65625 L 7.078125 2.546875 C 6.648438 2.410156 6.320312 2.164062 6.09375 1.8125 C 5.875 1.457031 5.75 1.03125 5.71875 0.53125 L 5.265625 -13.328125 C 5.265625 -13.441406 5.269531 -13.5625 5.28125 -13.6875 C 5.289062 -13.8125 5.316406 -13.925781 5.359375 -14.03125 Z M 5.359375 -14.03125 "/></g></g></g><g fill="#000000" fill-opacity="1"><g transform="translate(240.885748, 101.863571)"><g><path d="M 2.078125 -1.546875 L 13.5625 -10.125 C 13.945312 -10.425781 14.359375 -10.597656 14.796875 -10.640625 C 15.234375 -10.679688 15.664062 -10.578125 16.09375 -10.328125 L 16.296875 -10.234375 C 16.734375 -9.984375 17.046875 -9.660156 17.234375 -9.265625 C 17.421875 -8.878906 17.492188 -8.4375 17.453125 -7.9375 L 16.109375 6.3125 C 16.035156 6.6875 15.960938 6.9375 15.890625 7.0625 C 15.648438 7.488281 15.304688 7.769531 14.859375 7.90625 C 14.410156 8.039062 13.972656 7.988281 13.546875 7.75 C 13.171875 7.539062 12.910156 7.265625 12.765625 6.921875 C 12.628906 6.578125 12.578125 6.203125 12.609375 5.796875 L 12.921875 2.96875 L 6.53125 -0.609375 L 4.171875 1.1875 C 3.859375 1.4375 3.523438 1.570312 3.171875 1.59375 C 2.828125 1.625 2.488281 1.550781 2.15625 1.375 C 1.738281 1.132812 1.46875 0.789062 1.34375 0.34375 C 1.226562 -0.101562 1.285156 -0.53125 1.515625 -0.9375 C 1.578125 -1.0625 1.65625 -1.171875 1.75 -1.265625 C 1.84375 -1.359375 1.953125 -1.453125 2.078125 -1.546875 Z M 9.296875 -2.78125 L 13.3125 -0.53125 L 13.984375 -6.4375 Z M 9.296875 -2.78125 "/></g></g></g><g fill="#000000" fill-opacity="1"><g transform="translate(162.611005, 300.116738)"><g><path d="M 2.140625 -1.359375 L 3.75 -14.234375 C 3.8125 -14.722656 4.035156 -15.117188 4.421875 -15.421875 C 4.816406 -15.722656 5.257812 -15.84375 5.75 -15.78125 L 6.140625 -15.734375 C 6.523438 -15.691406 6.835938 -15.5625 7.078125 -15.34375 C 7.316406 -15.125 7.5 -14.875 7.625 -14.59375 L 11.0625 -7.078125 L 16.25 -13.546875 C 16.695312 -14.109375 17.265625 -14.347656 17.953125 -14.265625 L 18.34375 -14.21875 C 18.84375 -14.15625 19.242188 -13.925781 19.546875 -13.53125 C 19.847656 -13.132812 19.96875 -12.691406 19.90625 -12.203125 L 18.296875 0.625 C 18.234375 1.113281 18.007812 1.507812 17.625 1.8125 C 17.238281 2.113281 16.796875 2.234375 16.296875 2.171875 C 15.796875 2.109375 15.398438 1.878906 15.109375 1.484375 C 14.816406 1.097656 14.703125 0.660156 14.765625 0.171875 L 15.765625 -7.875 L 12.046875 -3.46875 C 11.828125 -3.21875 11.585938 -3.019531 11.328125 -2.875 C 11.078125 -2.738281 10.789062 -2.691406 10.46875 -2.734375 C 10.144531 -2.773438 9.875 -2.894531 9.65625 -3.09375 C 9.4375 -3.289062 9.253906 -3.535156 9.109375 -3.828125 L 6.625 -8.9375 L 5.625 -0.921875 C 5.5625 -0.429688 5.335938 -0.0390625 4.953125 0.25 C 4.578125 0.539062 4.144531 0.65625 3.65625 0.59375 C 3.164062 0.53125 2.773438 0.3125 2.484375 -0.0625 C 2.191406 -0.4375 2.078125 -0.867188 2.140625 -1.359375 Z M 2.140625 -1.359375 "/></g></g></g><g fill="#000000" fill-opacity="1"><g transform="translate(187.237979, 302.710276)"><g><path d="M 1.921875 -1.828125 L 1.734375 -14.515625 C 1.722656 -15.015625 1.890625 -15.441406 2.234375 -15.796875 C 2.578125 -16.148438 3 -16.332031 3.5 -16.34375 L 12.515625 -16.46875 C 12.960938 -16.476562 13.34375 -16.328125 13.65625 -16.015625 C 13.976562 -15.710938 14.144531 -15.335938 14.15625 -14.890625 C 14.164062 -14.441406 14.015625 -14.0625 13.703125 -13.75 C 13.390625 -13.445312 13.007812 -13.289062 12.5625 -13.28125 L 5.3125 -13.171875 L 5.375 -9.859375 L 11.578125 -9.953125 C 12.023438 -9.960938 12.40625 -9.816406 12.71875 -9.515625 C 13.03125 -9.210938 13.191406 -8.835938 13.203125 -8.390625 C 13.210938 -7.941406 13.0625 -7.5625 12.75 -7.25 C 12.445312 -6.945312 12.070312 -6.789062 11.625 -6.78125 L 5.421875 -6.6875 L 5.46875 -3.265625 L 12.828125 -3.375 C 13.285156 -3.382812 13.671875 -3.234375 13.984375 -2.921875 C 14.296875 -2.617188 14.453125 -2.242188 14.453125 -1.796875 C 14.460938 -1.347656 14.316406 -0.96875 14.015625 -0.65625 C 13.710938 -0.351562 13.332031 -0.195312 12.875 -0.1875 L 3.75 -0.0625 C 3.25 -0.0507812 2.820312 -0.21875 2.46875 -0.5625 C 2.113281 -0.90625 1.929688 -1.328125 1.921875 -1.828125 Z M 1.921875 -1.828125 "/></g></g></g><g fill="#000000" fill-opacity="1"><g transform="translate(207.275309, 302.132261)"><g><path d="M 1.6875 -2.046875 L -0.078125 -14.609375 C -0.140625 -15.109375 -0.0234375 -15.554688 0.265625 -15.953125 C 0.554688 -16.347656 0.953125 -16.578125 1.453125 -16.640625 L 10.375 -17.890625 C 10.820312 -17.953125 11.222656 -17.847656 11.578125 -17.578125 C 11.929688 -17.316406 12.140625 -16.96875 12.203125 -16.53125 C 12.265625 -16.082031 12.160156 -15.6875 11.890625 -15.34375 C 11.628906 -15 11.273438 -14.796875 10.828125 -14.734375 L 3.65625 -13.734375 L 4.109375 -10.453125 L 10.25 -11.3125 C 10.6875 -11.375 11.082031 -11.273438 11.4375 -11.015625 C 11.789062 -10.753906 12 -10.398438 12.0625 -9.953125 C 12.125 -9.503906 12.019531 -9.109375 11.75 -8.765625 C 11.476562 -8.429688 11.125 -8.234375 10.6875 -8.171875 L 4.546875 -7.3125 L 5.03125 -3.921875 L 12.3125 -4.9375 C 12.769531 -5 13.171875 -4.898438 13.515625 -4.640625 C 13.859375 -4.378906 14.0625 -4.023438 14.125 -3.578125 C 14.1875 -3.128906 14.085938 -2.734375 13.828125 -2.390625 C 13.566406 -2.046875 13.207031 -1.84375 12.75 -1.78125 L 3.71875 -0.515625 C 3.21875 -0.453125 2.769531 -0.566406 2.375 -0.859375 C 1.988281 -1.148438 1.757812 -1.546875 1.6875 -2.046875 Z M 1.6875 -2.046875 "/></g></g></g></svg>